<svg width="60" height="60" viewBox="0 0 60 60" fill="none" xmlns="http://www.w3.org/2000/svg">
<circle cx="30" cy="30" r="29.5" fill="white" stroke="#949494" stroke-linecap="round" stroke-dasharray="6 6"/>
<path d="M41.5385 25.3846C41.5385 22.1795 40.4168 19.4551 38.1733 17.2115C35.9299 14.9679 33.2057 13.8461 30.0007 13.8461C26.7958 13.8461 24.0715 14.9679 21.8281 17.2115C19.5846 19.4551 18.4629 22.1795 18.4629 25.3846V26.0456C16.0191 32.2956 14.7371 36.7428 14.6169 39.387C14.5368 41.1498 17.2811 42.0312 22.8497 42.0312C24.9729 43.754 27.3566 44.6154 30.0007 44.6154C32.805 44.6154 35.1887 43.754 37.1517 42.0312C42.6402 42.0312 45.3845 41.1498 45.3845 39.387C45.2643 36.7428 43.9823 32.2956 41.5385 26.0456V25.3846ZM30.0007 42.0312C27.5169 42.0312 25.4036 41.1598 23.6609 39.417C21.9182 37.6743 21.0469 35.5609 21.0469 33.0769V25.3846C21.0469 23.0609 21.8882 20.9575 23.5708 19.0745C24.5323 22.4399 29.6201 24.1226 38.8343 24.1226C38.9145 24.363 38.9545 24.7836 38.9545 25.3846V33.0769C38.9545 35.5609 38.0832 37.6743 36.3405 39.417C34.5978 41.1598 32.4845 42.0312 30.0007 42.0312ZM30.0007 34.3389C30.842 34.3389 31.2627 33.9182 31.2627 33.0769V31.8149H28.7388V33.0769C28.7388 33.9182 29.1594 34.3389 30.0007 34.3389ZM26.1548 27.9687C26.1548 28.2892 26.0246 28.5797 25.7642 28.8401C25.5038 29.1005 25.2133 29.2307 24.8928 29.2307C24.5323 29.2307 24.2218 29.1005 23.9614 28.8401C23.701 28.5797 23.5708 28.2892 23.5708 27.9687C23.5708 27.6081 23.701 27.2977 23.9614 27.0372C24.2218 26.7768 24.5323 26.6466 24.8928 26.6466C25.2133 26.6466 25.5038 26.7768 25.7642 27.0372C26.0246 27.2977 26.1548 27.6081 26.1548 27.9687ZM36.4306 27.9687C36.4306 28.2892 36.3004 28.5797 36.04 28.8401C35.7796 29.1005 35.4691 29.2307 35.1086 29.2307C34.7881 29.2307 34.4976 29.1005 34.2372 28.8401C33.9768 28.5797 33.8466 28.2892 33.8466 27.9687C33.8466 27.6081 33.9768 27.2977 34.2372 27.0372C34.4976 26.7768 34.7881 26.6466 35.1086 26.6466C35.4691 26.6466 35.7796 26.7768 36.04 27.0372C36.3004 27.2977 36.4306 27.6081 36.4306 27.9687ZM28.7388 38.1851H31.2627C31.9838 38.1851 32.5947 37.9347 33.0955 37.4339C33.5963 36.9331 33.8466 36.3421 33.8466 35.661H26.1548C26.1548 36.3421 26.4051 36.9331 26.9059 37.4339C27.4067 37.9347 28.0176 38.1851 28.7388 38.1851Z" fill="#CDCCD0"/>
</svg>
