<svg width="28" height="28" viewBox="0 0 28 28" fill="none" xmlns="http://www.w3.org/2000/svg">
<path d="M12.1579 17.6319H9C6.79086 17.6319 5 15.8411 5 13.6319V10.6846C5 9.58 5.89543 8.68457 7 8.68457H20C21.1046 8.68457 22 9.58 22 10.6846V13.6319C22 15.8411 20.2091 17.6319 18 17.6319H14.8421" stroke="currentColor" stroke-width="1.25" stroke-miterlimit="10"/>
<path d="M21.1053 16.2891V19.2101C21.1053 20.3147 20.2099 21.2101 19.1053 21.2101H7.89478C6.79021 21.2101 5.89478 20.3147 5.89478 19.2101L5.89478 16.2891" stroke="currentColor" stroke-width="1.25" stroke-miterlimit="10"/>
<path d="M10.3684 8.68421V8C10.3684 6.89543 11.2638 6 12.3684 6H14.6316C15.7361 6 16.6316 6.89543 16.6316 8V8.68421" stroke="currentColor" stroke-width="1.25" stroke-miterlimit="10"/>
<path d="M11.8882 15.5723H15.1119V17.1841C15.1119 18.0743 14.3902 18.7959 13.5 18.7959C12.6098 18.7959 11.8882 18.0743 11.8882 17.1841V15.5723Z" stroke="currentColor" stroke-width="1.25"/>
</svg>
