<svg width="16" height="16" viewBox="0 0 16 16" fill="none" xmlns="http://www.w3.org/2000/svg">
<rect width="16" height="16" rx="2" fill="#D6BBFE"/>
<path d="M5.03033 6.96967C4.73744 6.67678 4.26256 6.67678 3.96967 6.96967C3.67678 7.26256 3.67678 7.73744 3.96967 8.03033L5.03033 6.96967ZM7.5 10.5L6.96967 11.0303L7.5 11.5607L8.03033 11.0303L7.5 10.5ZM12.5303 6.53033C12.8232 6.23744 12.8232 5.76256 12.5303 5.46967C12.2374 5.17678 11.7626 5.17678 11.4697 5.46967L12.5303 6.53033ZM3.96967 8.03033L6.96967 11.0303L8.03033 9.96967L5.03033 6.96967L3.96967 8.03033ZM8.03033 11.0303L12.5303 6.53033L11.4697 5.46967L6.96967 9.96967L8.03033 11.0303Z" fill="white"/>
</svg>
