<svg width="140" height="140" viewBox="0 0 140 140" fill="none" xmlns="http://www.w3.org/2000/svg">
<g clip-path="url(#clip0_456_22032)">
<path d="M120.225 127H20.782C17.0377 127 14 123.955 14 120.202V49.7003L65.3206 15.563C68.4603 13.4746 72.5397 13.4746 75.6794 15.563L127 49.693V120.202C127 123.955 123.962 127 120.218 127H120.225Z" fill="#E4E2E2"/>
<path d="M29.2832 32.4816V95.0095H111.724V32.4816C111.724 28.5312 108.533 25.3329 104.592 25.3329H36.4149C32.4739 25.3329 29.2832 28.5312 29.2832 32.4816Z" fill="white"/>
<path d="M14 49.7L65.3206 83.83C68.4603 85.9184 72.5397 85.9184 75.6794 83.83L127 49.7V120.209C127 123.962 123.962 127.007 120.218 127.007H20.782C17.0377 127.007 14 123.962 14 120.209V49.7Z" fill="#949494"/>
<path d="M95.4864 52.9567H45.9215C45.5208 52.9567 45.193 52.6281 45.193 52.2265C45.193 51.8249 45.5208 51.4963 45.9215 51.4963H95.4864C95.8871 51.4963 96.2149 51.8249 96.2149 52.2265C96.2149 52.6281 95.8871 52.9567 95.4864 52.9567Z" fill="#949494"/>
<path d="M64.5411 36.1107H45.9288C45.5281 36.1107 45.2003 35.7822 45.2003 35.3805C45.2003 34.9789 45.5281 34.6503 45.9288 34.6503H64.5411C64.9418 34.6503 65.2696 34.9789 65.2696 35.3805C65.2696 35.7822 64.9418 36.1107 64.5411 36.1107Z" fill="#949494"/>
<path d="M64.5411 41.748H45.9288C45.5281 41.748 45.2003 41.4194 45.2003 41.0178C45.2003 40.6162 45.5281 40.2876 45.9288 40.2876H64.5411C64.9418 40.2876 65.2696 40.6162 65.2696 41.0178C65.2696 41.4194 64.9418 41.748 64.5411 41.748Z" fill="#949494"/>
<path d="M95.4864 59.4409H45.9215C45.5208 59.4409 45.193 59.1124 45.193 58.7107C45.193 58.3091 45.5208 57.9805 45.9215 57.9805H95.4864C95.8871 57.9805 96.2149 58.3091 96.2149 58.7107C96.2149 59.1124 95.8871 59.4409 95.4864 59.4409Z" fill="#949494"/>
<path d="M95.4864 65.9253H45.9215C45.5208 65.9253 45.193 65.5967 45.193 65.1951C45.193 64.7934 45.5208 64.4648 45.9215 64.4648H95.4864C95.8871 64.4648 96.2149 64.7934 96.2149 65.1951C96.2149 65.5967 95.8871 65.9253 95.4864 65.9253Z" fill="#949494"/>
</g>
<g filter="url(#filter0_d_456_22032)">
<circle cx="114" cy="114" r="19" fill="white"/>
</g>
<path d="M105 114.085L112.605 120L124 109" stroke="#4E35E7" stroke-width="2" stroke-linecap="round" stroke-linejoin="round"/>
<defs>
<filter id="filter0_d_456_22032" x="93" y="95" width="42" height="42" filterUnits="userSpaceOnUse" color-interpolation-filters="sRGB">
<feFlood flood-opacity="0" result="BackgroundImageFix"/>
<feColorMatrix in="SourceAlpha" type="matrix" values="0 0 0 0 0 0 0 0 0 0 0 0 0 0 0 0 0 0 127 0" result="hardAlpha"/>
<feOffset dy="2"/>
<feGaussianBlur stdDeviation="1"/>
<feComposite in2="hardAlpha" operator="out"/>
<feColorMatrix type="matrix" values="0 0 0 0 0 0 0 0 0 0 0 0 0 0 0 0 0 0 0.08 0"/>
<feBlend mode="normal" in2="BackgroundImageFix" result="effect1_dropShadow_456_22032"/>
<feBlend mode="normal" in="SourceGraphic" in2="effect1_dropShadow_456_22032" result="shape"/>
</filter>
<clipPath id="clip0_456_22032">
<rect width="113" height="113" fill="white" transform="translate(14 14)"/>
</clipPath>
</defs>
</svg>
