<svg width="24" height="24" viewBox="0 0 24 24" fill="none" xmlns="http://www.w3.org/2000/svg">
<path fill-rule="evenodd" clip-rule="evenodd" d="M4.94591 6.16613H6.95562V4.61695C6.95562 4.2745 7.22626 4 7.56389 4C7.90152 4 8.1802 4.2745 8.1802 4.61695V6.16613H15.86V4.61695C15.86 4.2745 16.1387 4 16.4763 4C16.8139 4 17.0926 4.2745 17.0926 4.61695V6.16613H19.1934L19.2095 6.17428H19.2336L19.2577 6.18244H19.2819L19.2979 6.19059H19.3247L19.3489 6.19874L19.3649 6.2069L19.389 6.21505L19.4132 6.2232L19.4292 6.23136L19.4534 6.23951L19.4694 6.24766L19.4936 6.25582L19.5096 6.26397L19.5337 6.27213L19.5498 6.28843L19.5659 6.29659L19.59 6.31289L19.6061 6.32105L19.6222 6.33735L19.6383 6.34551L19.6543 6.36181L19.6704 6.37812L19.6945 6.38627L19.7106 6.40258L19.7186 6.41889H19.7267L19.7347 6.4352L19.7508 6.4515L19.7669 6.46781L19.783 6.48412L19.799 6.50042L19.8071 6.51673L19.8231 6.53304L19.8392 6.54935L19.8473 6.56565L19.8633 6.59011L19.8714 6.60642L19.8794 6.62273L19.8955 6.64719L19.9035 6.6635L19.9116 6.6798V6.68796L19.9196 6.70426L19.9357 6.72057L19.9437 6.74503L19.9518 6.76949V6.7858L19.9598 6.81026L19.9678 6.82657L19.9759 6.85103V6.87549L19.9839 6.8918L19.992 6.91626V6.94072V6.96518L20 6.98964V7.00595V7.03041V7.05487V7.07933V8.60404V19.0406C20 19.5706 19.5766 20 19.0541 20H4.94591C4.42338 20 4 19.5706 4 19.0406V7.12553V7.10107V7.07661V7.05215L4.00804 7.03584V7.01138V6.98692L4.01608 6.96246V6.938L4.02412 6.92169L4.03216 6.89723H4.03484V6.87277L4.04287 6.85646L4.05091 6.832L4.05895 6.8157L4.06699 6.79124L4.07503 6.76677L4.08307 6.75047L4.09111 6.73416V6.72601L4.09915 6.7097H4.10183L4.1179 6.69339L4.12594 6.66893L4.13398 6.65262L4.15006 6.63632H4.15274L4.16078 6.61186L4.17685 6.59555L4.18489 6.57924L4.20097 6.56294H4.20365L4.21973 6.54663L4.22777 6.53032L4.24385 6.51401L4.25992 6.49771H4.2626L4.27868 6.4814L4.29476 6.46509L4.31084 6.44879L4.32691 6.43248L4.34299 6.42432L4.35907 6.40802L4.37515 6.39171L4.39122 6.38356L4.41534 6.36725L4.43142 6.3591L4.4475 6.34279L4.46357 6.33464L4.48769 6.31833L4.50377 6.31018L4.52788 6.30202L4.54396 6.29387L4.56808 6.28571L4.58416 6.27756L4.60827 6.26941L4.62435 6.26125L4.65115 6.2531L4.67526 6.24495L4.69134 6.23679H4.71546L4.73957 6.22864H4.75565L4.77977 6.22049H4.80389L4.828 6.21233H4.92179L4.94591 6.16613ZM5.2755 8.64753H18.7701V17.4045C18.7701 17.8502 18.4163 18.2089 17.9769 18.2089H6.06063C5.62117 18.2089 5.26746 17.8502 5.26746 17.4045V8.76711C5.26746 8.72363 5.26746 8.69101 5.2755 8.64753ZM6.73589 10.2565H8.96265V12.4063H6.73589V10.2565ZM15.0829 13.7571H17.3097V15.9069H15.0829V13.7571ZM10.9054 13.7571H13.1321V15.9069H10.9054V13.7571ZM6.73589 13.7571H8.96265V15.9069H6.73589V13.7571ZM15.0829 10.2565H17.3097V12.4063H15.0829V10.2565ZM10.9054 10.2565H13.1321V12.4063H10.9054V10.2565Z" fill="#CDCCD0"/>
</svg>
