<svg width="28" height="28" viewBox="0 0 28 28" fill="none" xmlns="http://www.w3.org/2000/svg">
<path d="M9.73028 12.2697C9.43739 11.9768 8.96251 11.9768 8.66962 12.2697C8.37673 12.5626 8.37673 13.0374 8.66962 13.3303L9.73028 12.2697ZM14 17.6L13.4696 18.1303C13.7625 18.4232 14.2374 18.4232 14.5303 18.1303L14 17.6ZM19.3303 13.3303C19.6232 13.0374 19.6232 12.5626 19.3303 12.2697C19.0374 11.9768 18.5625 11.9768 18.2696 12.2697L19.3303 13.3303ZM8.66962 13.3303L13.4696 18.1303L14.5303 17.0697L9.73028 12.2697L8.66962 13.3303ZM14.5303 18.1303L19.3303 13.3303L18.2696 12.2697L13.4696 17.0697L14.5303 18.1303Z" fill="#1D1D1D"/>
<circle cx="14" cy="14" r="11.5" stroke="#E4E2E2"/>
</svg>
