<svg width="32" height="32" viewBox="0 0 32 32" fill="none" xmlns="http://www.w3.org/2000/svg">
<path d="M14.0851 14.6719C14.6241 14.1573 15.2624 13.9 16 13.9C16.7376 13.9 17.3759 14.1573 17.9149 14.6719C18.4539 15.1865 18.7234 15.7958 18.7234 16.5C18.7234 17.2042 18.4539 17.8135 17.9149 18.3281C17.3759 18.8427 16.7376 19.1 16 19.1C15.2624 19.1 14.6241 18.8427 14.0851 18.3281C13.5461 17.8135 13.2766 17.2042 13.2766 16.5C13.2766 15.7958 13.5461 15.1865 14.0851 14.6719ZM12.766 19.5875C13.6738 20.4271 14.7518 20.8469 16 20.8469C17.2482 20.8469 18.3121 20.4271 19.1915 19.5875C20.0993 18.7208 20.5532 17.6917 20.5532 16.5C20.5532 15.3083 20.0993 14.2927 19.1915 13.4531C18.3121 12.5865 17.2482 12.1531 16 12.1531C14.7518 12.1531 13.6738 12.5865 12.766 13.4531C11.8865 14.2927 11.4468 15.3083 11.4468 16.5C11.4468 17.6917 11.8865 18.7208 12.766 19.5875ZM9.91489 11.7875C11.7305 10.5958 13.7589 10 16 10C18.2411 10 20.2695 10.5958 22.0851 11.7875C23.9007 12.9792 25.2057 14.55 26 16.5C25.2057 18.45 23.9007 20.0208 22.0851 21.2125C20.2695 22.4042 18.2411 23 16 23C13.7589 23 11.7305 22.4042 9.91489 21.2125C8.09929 20.0208 6.79433 18.45 6 16.5C6.79433 14.55 8.09929 12.9792 9.91489 11.7875Z" fill="#949494"/>
</svg>
