<svg width="28" height="28" viewBox="0 0 28 28" fill="none" xmlns="http://www.w3.org/2000/svg">
<path d="M11.0697 18.0698C10.7768 18.3627 10.7768 18.8375 11.0697 19.1304C11.3626 19.4233 11.8374 19.4233 12.1303 19.1304L11.0697 18.0698ZM16.4 13.8001L16.9303 14.3304C17.2232 14.0375 17.2232 13.5627 16.9303 13.2698L16.4 13.8001ZM12.1303 8.46977C11.8374 8.17687 11.3626 8.17687 11.0697 8.46977C10.7768 8.76266 10.7768 9.23753 11.0697 9.53043L12.1303 8.46977ZM12.1303 19.1304L16.9303 14.3304L15.8697 13.2698L11.0697 18.0698L12.1303 19.1304ZM16.9303 13.2698L12.1303 8.46977L11.0697 9.53043L15.8697 14.3304L16.9303 13.2698Z" fill="white"/>
</svg>
