<svg width="40" height="40" viewBox="0 0 40 40" fill="none" xmlns="http://www.w3.org/2000/svg">
<mask id="mask0_472_18885" style="mask-type:alpha" maskUnits="userSpaceOnUse" x="4" y="4" width="32" height="32">
<rect x="4" y="4" width="32" height="32" fill="#D9D9D9"/>
</mask>
<g mask="url(#mask0_472_18885)">
<path d="M7.38964 24.1048L7.39383 24.1091C9.2517 26.0021 12.2639 26.0021 14.1218 24.1091L32.607 5.27469C34.4649 3.38172 34.4649 0.3126 32.607 -1.58038L32.6028 -1.58464C30.7449 -3.47761 27.7327 -3.47761 25.8748 -1.58464L7.38964 17.2498C5.53176 19.1427 5.53176 22.2118 7.38964 24.1048Z" fill="currentColor"/>
<path d="M7.38769 40.5709L7.39187 40.5752C9.24975 42.4681 12.262 42.4681 14.1198 40.5752L32.605 21.7408C34.4629 19.8478 34.4629 16.7787 32.605 14.8857L32.6009 14.8814C30.743 12.9885 27.7308 12.9885 25.8729 14.8814L7.38769 33.7158C5.52981 35.6088 5.52981 38.6779 7.38769 40.5709Z" fill="currentColor"/>
</g>
</svg>
