<svg width="40" height="40" viewBox="0 0 40 40" fill="none" xmlns="http://www.w3.org/2000/svg">
<path d="M20.1981 10.7334C22.0398 10.7334 23.5329 9.22606 23.5329 7.36669C23.5329 5.50732 22.0398 4 20.1981 4C18.3563 4 16.8633 5.50732 16.8633 7.36669C16.8633 9.22606 18.3563 10.7334 20.1981 10.7334Z" fill="#1D1D1D"/>
<path d="M11.8729 13.615C13.7146 13.615 15.2077 12.1076 15.2077 10.2483C15.2077 8.38891 13.7146 6.88159 11.8729 6.88159C10.0311 6.88159 8.53809 8.38891 8.53809 10.2483C8.53809 12.1076 10.0311 13.615 11.8729 13.615Z" fill="#1D1D1D"/>
<path d="M7.33479 21.2243C9.17655 21.2243 10.6696 19.717 10.6696 17.8577C10.6696 15.9983 9.17655 14.491 7.33479 14.491C5.49304 14.491 4 15.9983 4 17.8577C4 19.717 5.49304 21.2243 7.33479 21.2243Z" fill="#1D1D1D"/>
<path d="M8.701 30.0012C10.5428 30.0012 12.0358 28.4939 12.0358 26.6345C12.0358 24.7751 10.5428 23.2678 8.701 23.2678C6.85925 23.2678 5.36621 24.7751 5.36621 26.6345C5.36621 28.4939 6.85925 30.0012 8.701 30.0012Z" fill="#1D1D1D"/>
<path d="M15.3387 35.8352C17.1805 35.8352 18.6735 34.3279 18.6735 32.4685C18.6735 30.6091 17.1805 29.1018 15.3387 29.1018C13.4969 29.1018 12.0039 30.6091 12.0039 32.4685C12.0039 34.3279 13.4969 35.8352 15.3387 35.8352Z" fill="#1D1D1D"/>
<path d="M24.1346 36C25.9763 36 27.4694 34.4927 27.4694 32.6333C27.4694 30.7739 25.9763 29.2666 24.1346 29.2666C22.2928 29.2666 20.7998 30.7739 20.7998 32.6333C20.7998 34.4927 22.2928 36 24.1346 36Z" fill="#1D1D1D"/>
<path d="M30.9764 30.4155C32.8181 30.4155 34.3112 28.9082 34.3112 27.0488C34.3112 25.1894 32.8181 23.6821 30.9764 23.6821C29.1346 23.6821 27.6416 25.1894 27.6416 27.0488C27.6416 28.9082 29.1346 30.4155 30.9764 30.4155Z" fill="#1D1D1D"/>
<path d="M32.6649 21.6999C34.5066 21.6999 35.9997 20.1926 35.9997 18.3332C35.9997 16.4739 34.5066 14.9666 32.6649 14.9666C30.8231 14.9666 29.3301 16.4739 29.3301 18.3332C29.3301 20.1926 30.8231 21.6999 32.6649 21.6999Z" fill="#1D1D1D"/>
<path d="M28.4071 13.9258C30.2488 13.9258 31.7418 12.4184 31.7418 10.5591C31.7418 8.6997 30.2488 7.19238 28.4071 7.19238C26.5653 7.19238 25.0723 8.6997 25.0723 10.5591C25.0723 12.4184 26.5653 13.9258 28.4071 13.9258Z" fill="#1D1D1D"/>
</svg>
