<svg width="40" height="40" viewBox="0 0 40 40" fill="none" xmlns="http://www.w3.org/2000/svg">
<path fill-rule="evenodd" clip-rule="evenodd" d="M19.8252 28.0126C22.1394 26.0312 23.6061 23.0883 23.6061 19.8029C23.6061 16.5175 22.1394 13.5746 19.8252 11.5932C21.7136 9.97643 24.1665 8.99988 26.8474 8.99988C32.8137 8.99988 37.6504 13.8366 37.6504 19.8029C37.6504 25.7693 32.8137 30.6059 26.8474 30.6059C24.1665 30.6059 21.7136 29.6294 19.8252 28.0126ZM19.8252 28.0126C17.9368 29.6294 15.4839 30.6059 12.803 30.6059C6.83668 30.6059 2 25.7693 2 19.8029C2 13.8366 6.83668 8.99988 12.803 8.99988C15.4839 8.99988 17.9368 9.97643 19.8252 11.5932C17.511 13.5746 16.0443 16.5175 16.0443 19.8029C16.0443 23.0883 17.511 26.0312 19.8252 28.0126Z" fill="currentColor"/>
</svg>
