<svg width="28" height="28" viewBox="0 0 28 28" fill="none" xmlns="http://www.w3.org/2000/svg">
<path d="M9.58092 20.9132L10.0868 21.4157C10.3656 21.6926 10.7321 21.8413 11.1244 21.8413C11.5168 21.8413 11.8833 21.6926 12.1569 21.4157L12.4821 21.0927L13.9946 22.5949C13.9946 22.5949 14.0204 22.6206 14.0359 22.6257C14.0463 22.6411 14.0617 22.6565 14.0721 22.6667C14.2889 22.8821 14.578 23 14.8877 23C15.1974 23 15.4865 22.8821 15.7033 22.6667C16.0079 22.3642 16.1112 21.9284 15.9924 21.5234C15.9924 21.508 15.9924 21.4926 15.9924 21.4823L15.4607 18.1445L19.6266 14.0069C19.7299 13.9043 19.8125 13.7864 19.8848 13.648C19.9106 13.6172 19.9312 13.5762 19.9467 13.5352L21.898 7.72607C21.929 7.64916 21.9548 7.57225 21.9755 7.49022C21.9755 7.48509 21.9755 7.47483 21.9755 7.46971C22.0581 7.06466 21.929 6.64423 21.6348 6.3571C21.3405 6.06998 20.9017 5.93667 20.4836 6.02896C20.4681 6.02896 20.4578 6.02896 20.4423 6.03922C20.3855 6.0546 20.3339 6.06998 20.2874 6.09049L14.6038 7.95166C14.3147 8.01832 14.0824 8.13624 13.9017 8.32082L9.7616 12.4226L6.39065 11.8894C6.39065 11.8894 6.34419 11.8894 6.31838 11.8894C5.95702 11.833 5.59567 11.9509 5.33755 12.2124C4.8936 12.6533 4.88844 13.366 5.3169 13.8121C5.32207 13.8223 5.33239 13.8326 5.34272 13.8428L6.8346 15.3246L6.42679 15.7296C5.85378 16.2987 5.85894 17.2216 6.42679 17.7856L6.91204 18.2676L9.57576 20.9132H9.58092Z" stroke="currentColor" stroke-width="1.3" stroke-miterlimit="10"/>
<path d="M16.3709 10.9692C16.1429 10.8452 15.887 10.7812 15.623 10.7812C15.1991 10.7812 14.7991 10.9452 14.4992 11.2492C14.1992 11.5491 14.0312 11.9491 14.0312 12.377C14.0312 12.8049 14.1952 13.2009 14.4992 13.5048C14.8031 13.8088 15.1991 13.9688 15.623 13.9688C16.0469 13.9688 16.4469 13.8048 16.7508 13.5008C17.0508 13.2009 17.2188 12.8009 17.2188 12.373C17.2188 11.9491 17.0548 11.5491 16.7508 11.2492C16.6388 11.1372 16.5109 11.0412 16.3749 10.9692H16.3709Z" stroke="currentColor" stroke-width="1.3" stroke-miterlimit="10"/>
</svg>
