<svg width="24" height="24" viewBox="0 0 24 24" fill="none" xmlns="http://www.w3.org/2000/svg">
<path d="M9.5225 11.0325C10.1925 10.3525 11.2925 10.3425 11.9825 11.0225H11.9925C12.1925 11.2325 12.3325 11.4725 12.4225 11.7325C12.6225 11.7025 12.8125 11.6125 12.9625 11.4725L13.6525 10.7925C13.4925 10.4925 13.2925 10.2125 13.0525 9.97252C11.7825 8.70252 9.7225 8.70252 8.4525 9.97252L5.9525 12.4625C4.6825 13.7325 4.6825 15.7925 5.9525 17.0625C7.2225 18.3325 9.2825 18.3325 10.5525 17.0625L12.9025 14.7125C12.2425 14.8225 11.5725 14.7625 10.9425 14.5525L9.4825 16.0125C8.7925 16.6825 7.7025 16.6825 7.0025 16.0125C6.3225 15.3325 6.3225 14.2225 7.0025 13.5425L9.5025 11.0425H9.5125L9.5225 11.0325Z" fill="#1D1D1D"/>
<path d="M13.4925 11.9925C12.8225 12.6725 11.7225 12.6825 11.0425 12.0125L11.0225 11.9925C10.8225 11.7925 10.6825 11.5525 10.5925 11.2925C10.3925 11.3225 10.2025 11.4125 10.0525 11.5525L9.36255 12.2325C9.52255 12.5325 9.72255 12.8125 9.96255 13.0525C11.2325 14.3225 13.2925 14.3225 14.5625 13.0525L17.0625 10.5525C18.3325 9.2825 18.3325 7.2225 17.0625 5.9525C15.7925 4.6825 13.7325 4.6825 12.4625 5.9525L10.1025 8.3125C10.7625 8.2025 11.4325 8.2625 12.0625 8.4825L13.5225 7.0225C14.2125 6.3525 15.3025 6.3525 16.0025 7.0225C16.6825 7.7025 16.6825 8.8125 16.0025 9.4925L13.5025 11.9925H13.4925Z" fill="#1D1D1D"/>
</svg>
