<svg width="140" height="140" viewBox="0 0 140 140" fill="none" xmlns="http://www.w3.org/2000/svg">
<g clip-path="url(#clip0_456_22021)">
<path d="M120.225 127H20.782C17.0377 127 14 123.955 14 120.202V49.7003L65.3206 15.563C68.4603 13.4746 72.5397 13.4746 75.6794 15.563L127 49.693V120.202C127 123.955 123.962 127 120.218 127H120.225Z" fill="#E4E2E2"/>
<path d="M29.2832 32.4816V95.0095H111.724V32.4816C111.724 28.5312 108.533 25.3329 104.592 25.3329H36.4149C32.4739 25.3329 29.2832 28.5312 29.2832 32.4816Z" fill="white"/>
<path d="M14 49.7L65.3206 83.83C68.4603 85.9184 72.5397 85.9184 75.6794 83.83L127 49.7V120.209C127 123.962 123.962 127.007 120.218 127.007H20.782C17.0377 127.007 14 123.962 14 120.209V49.7Z" fill="#949494"/>
<path d="M95.4866 52.9567H45.9216C45.5209 52.9567 45.1931 52.6281 45.1931 52.2265C45.1931 51.8249 45.5209 51.4963 45.9216 51.4963H95.4866C95.8872 51.4963 96.215 51.8249 96.215 52.2265C96.215 52.6281 95.8872 52.9567 95.4866 52.9567Z" fill="#949494"/>
<path d="M64.541 36.1107H45.9287C45.528 36.1107 45.2002 35.7822 45.2002 35.3805C45.2002 34.9789 45.528 34.6503 45.9287 34.6503H64.541C64.9417 34.6503 65.2695 34.9789 65.2695 35.3805C65.2695 35.7822 64.9417 36.1107 64.541 36.1107Z" fill="#949494"/>
<path d="M64.541 41.748H45.9287C45.528 41.748 45.2002 41.4194 45.2002 41.0178C45.2002 40.6162 45.528 40.2876 45.9287 40.2876H64.541C64.9417 40.2876 65.2695 40.6162 65.2695 41.0178C65.2695 41.4194 64.9417 41.748 64.541 41.748Z" fill="#949494"/>
<path d="M95.4866 59.4409H45.9216C45.5209 59.4409 45.1931 59.1124 45.1931 58.7107C45.1931 58.3091 45.5209 57.9805 45.9216 57.9805H95.4866C95.8872 57.9805 96.215 58.3091 96.215 58.7107C96.215 59.1124 95.8872 59.4409 95.4866 59.4409Z" fill="#949494"/>
<path d="M95.4866 65.9253H45.9216C45.5209 65.9253 45.1931 65.5967 45.1931 65.1951C45.1931 64.7934 45.5209 64.4648 45.9216 64.4648H95.4866C95.8872 64.4648 96.215 64.7934 96.215 65.1951C96.215 65.5967 95.8872 65.9253 95.4866 65.9253Z" fill="#949494"/>
</g>
<defs>
<clipPath id="clip0_456_22021">
<rect width="113" height="113" fill="white" transform="translate(14 14)"/>
</clipPath>
</defs>
</svg>
