<?xml version="1.0" encoding="utf-8"?>
<!-- Generator: Adobe Illustrator 26.3.1, SVG Export Plug-In . SVG Version: 6.00 Build 0)  -->
<svg version="1.1" id="Layer_1" width="28" height="28" xmlns="http://www.w3.org/2000/svg" xmlns:xlink="http://www.w3.org/1999/xlink" x="0px" y="0px"
	 viewBox="0 0 28 28" style="enable-background:new 0 0 28 28;" xml:space="preserve">
<style type="text/css">
	.st0{fill:currentColor;stroke:currentColor;stroke-width:0.1;}
</style>
<path class="st0" d="M12.9,16.7c1.2-0.8,1.9-2.3,1.7-3.9h0c-0.2-2-1.7-3.6-3.6-3.8h0c-2.5-0.3-4.6,1.7-4.6,4.2
	c0,1.4,0.7,2.7,1.8,3.5c-2.3,0.9-4,3.1-4.2,5.7l0,0c0,0.3,0.2,0.6,0.6,0.6h0c0.3,0,0.6-0.2,0.6-0.6l0,0c0.2-2.8,2.6-5,5.4-5
	c2.8,0,5.1,2.2,5.4,5v0c0,0.3,0.3,0.6,0.6,0.6h0c0.3,0,0.6-0.3,0.6-0.6C16.8,19.8,15.1,17.6,12.9,16.7z M10.5,16.2
	c-1.6,0-2.9-1.4-2.9-3s1.3-3,2.9-3c1.6,0,2.9,1.4,2.9,3S12.1,16.2,10.5,16.2z"/>
<path class="st0" d="M13.5,7.2L13.5,7.2c-0.1,0.1-0.2,0.2-0.3,0.3c-0.2,0.3-0.1,0.7,0.2,0.9l0,0v0l0,0c0.2,0.1,0.6,0.1,0.7-0.1v0
	c0.1-0.2,0.3-0.3,0.5-0.5v0c0.6-0.5,1.4-0.7,2.2-0.6l0,0c1.4,0.2,2.5,1.3,2.6,2.6c0.2,1.5-0.8,2.9-2.2,3.3c-0.3,0.1-0.5,0.1-0.8,0.1
	h0h0h0h0h0h0h0h0h0h0h0h0h0h0h0h0h0h0h0h0h0h0h0h0h0h0h0h0h0h0h0h0h0h0h0h0h0h0h0h0h0h0h0h0h0h0h0h0h0h0h0h0h0h0h0h0h0h0h0h0h0h0h0
	h0h0h0h0h0h0h0h0h0h0h0h0h0h0h0h0h0h0h0h0h0h0h0h0h0h0h0h0h0h0h0h0h0h0h0h0h0h0h0h0h0h0h0h0h0h0h0h0h0h0h0h0h0h0h0h0h0h0h0h0h0h0h0
	h0h0h0h0h0h0h0h0h0h0h0h0h0h0h0h0h0h0h0h0h0h0h0h0h0h0h0h0h0h0h0h0h0h0h0h0h0h0h0h0h0h0h0h0h0h0h0h0h0h0h0h0h0h0h0h0h0h0h0h0h0h0h0
	h0h0h0h0h0h0h0h0h0h0h0h0h0h0h0h0h0h0h0h0h0h0h0h0h0h0h0h0h0h0h0h0h0h0h0h0h0h0h0h0h0h0h0h0h0h0h0h0h0h0h0h0h0h0h0h0h0h0h0h0h0h0h0
	h0h0h0h0h0h0h0h0h0h0h0h0h0h0h0h0h0h0h0h0h0h0h0h0h0h0h0h0h0h0h0h0h0h0h0h0h0h0h0h0h0h0h0h0h0h0h0h0h0h0h0h0h0h0h0h0h0h0h0h0h0h0h0
	h0h0h0h0h0h0h0h0h0h0h0h0h0h0h0h0h0h0h0h0h0h0h0h0h0h0h0h0h0h0h0h0h0h0h0h0h0h0h0h0h0h0h0h0h0h0h0h0h0h0h0h0h0h0h0h0h0h0h0h0h0h0h0
	h0h0h0h0h0h0h0h0h0h0h0h0h0h0h0h0h0h0h0h0h0h0h0h0h0h0h0h0h0h0h0l0,0l0,0c0,0-0.4,0.1-0.4,0.1c-0.1,0.1,0.1,0.7,0.1,0.7
	c0,0.1,0.1,0.3,0.2,0.3l0,0l0.2,0c0.2,0,0.4,0,0.7,0c2.6,0.3,4.6,2.4,4.8,5c0,0.3,0.3,0.6,0.6,0.6c0.4,0,0.6-0.3,0.6-0.7v0
	c-0.2-2.6-2-4.8-4.3-5.7c1.2-0.8,2-2.3,1.8-3.9c-0.2-2-1.8-3.6-3.7-3.8C15.5,5.8,14.3,6.3,13.5,7.2L13.5,7.2z"/>
</svg>
