<svg width="28" height="28" viewBox="0 0 28 28" fill="none" xmlns="http://www.w3.org/2000/svg">
<circle cx="14" cy="14" r="11.5" stroke="#E4E2E2"/>
<path d="M16 17.5C16 18.6047 15.1047 19.5 14 19.5C12.8953 19.5 12 18.6047 12 17.5" stroke="#1D1D1D" stroke-miterlimit="10"/>
<path d="M18.342 16.6163C18.3096 16.5845 18.2914 16.5418 18.2914 16.4968L18.282 13.1015C18.1588 11.2635 16.8286 9.74833 15.0605 9.30833C14.9615 9.28368 14.8845 9.21059 14.8541 9.11514C14.7408 8.75884 14.4012 8.5 14.0002 8.5C13.5991 8.5 13.2595 8.75884 13.1459 9.11514C13.1155 9.21059 13.0385 9.28368 12.9396 9.30833C11.1711 9.74862 9.84123 11.2638 9.71799 13.1018L9.70833 13.5V16.4968C9.70833 16.5418 9.69018 16.5848 9.65768 16.6166L9.05113 17.2105C8.94194 17.3174 9.01922 17.5 9.1735 17.5H18.8265C18.9808 17.5 19.0581 17.3174 18.9489 17.2105L18.342 16.6163Z" stroke="#1D1D1D" stroke-miterlimit="10" stroke-linejoin="round"/>
</svg>
