<svg width="32" height="32" viewBox="0 0 32 32" fill="none" xmlns="http://www.w3.org/2000/svg">
<circle cx="16" cy="16" r="16" fill="#CDCCD0"/>
<path d="M22.154 13.5392C22.154 11.8298 21.5557 10.3768 20.3592 9.18025C19.1627 7.98367 17.7098 7.38538 16.0005 7.38538C14.2912 7.38538 12.8383 7.98367 11.6418 9.18025C10.4453 10.3768 9.847 11.8298 9.847 13.5392V13.8918C8.54365 17.2251 7.85993 19.5969 7.79583 21.0072C7.7531 21.9473 9.21669 22.4174 12.1866 22.4174C13.319 23.3362 14.5903 23.7956 16.0005 23.7956C17.4961 23.7956 18.7674 23.3362 19.8144 22.4174C22.7416 22.4174 24.2052 21.9473 24.2052 21.0072C24.1411 19.5969 23.4574 17.2251 22.154 13.8918V13.5392ZM16.0005 22.4174C14.6758 22.4174 13.5487 21.9527 12.6193 21.0232C11.6898 20.0937 11.2251 18.9666 11.2251 17.6418V13.5392C11.2251 12.2999 11.6738 11.1781 12.5712 10.1738C13.084 11.9687 15.7975 12.8661 20.7118 12.8661C20.7545 12.9943 20.7759 13.2187 20.7759 13.5392V17.6418C20.7759 18.9666 20.3112 20.0937 19.3817 21.0232C18.4523 21.9527 17.3252 22.4174 16.0005 22.4174ZM16.0005 18.3149C16.4492 18.3149 16.6735 18.0905 16.6735 17.6418V16.9687H15.3275V17.6418C15.3275 18.0905 15.5518 18.3149 16.0005 18.3149ZM13.9493 14.9174C13.9493 15.0884 13.8799 15.2433 13.741 15.3822C13.6021 15.5211 13.4472 15.5905 13.2763 15.5905C13.084 15.5905 12.9184 15.5211 12.7795 15.3822C12.6406 15.2433 12.5712 15.0884 12.5712 14.9174C12.5712 14.7251 12.6406 14.5595 12.7795 14.4206C12.9184 14.2817 13.084 14.2123 13.2763 14.2123C13.4472 14.2123 13.6021 14.2817 13.741 14.4206C13.8799 14.5595 13.9493 14.7251 13.9493 14.9174ZM19.4298 14.9174C19.4298 15.0884 19.3604 15.2433 19.2215 15.3822C19.0826 15.5211 18.917 15.5905 18.7247 15.5905C18.5538 15.5905 18.3989 15.5211 18.26 15.3822C18.1211 15.2433 18.0517 15.0884 18.0517 14.9174C18.0517 14.7251 18.1211 14.5595 18.26 14.4206C18.3989 14.2817 18.5538 14.2123 18.7247 14.2123C18.917 14.2123 19.0826 14.2817 19.2215 14.4206C19.3604 14.5595 19.4298 14.7251 19.4298 14.9174ZM15.3275 20.3661H16.6735C17.0581 20.3661 17.384 20.2326 17.6511 19.9655C17.9181 19.6984 18.0517 19.3832 18.0517 19.02H13.9493C13.9493 19.3832 14.0829 19.6984 14.35 19.9655C14.617 20.2326 14.9429 20.3661 15.3275 20.3661Z" fill="white"/>
</svg>
