<svg width="40" height="40" viewBox="0 0 40 40" fill="none" xmlns="http://www.w3.org/2000/svg">
<circle cx="20" cy="20" r="20" fill="#CDCCD0"/>
<path d="M27.693 16.924C27.693 14.7872 26.9452 12.971 25.4495 11.4753C23.9539 9.97955 22.1377 9.23169 20.0011 9.23169C17.8645 9.23169 16.0483 9.97955 14.5527 11.4753C13.0571 12.971 12.3092 14.7872 12.3092 16.924V17.3647C10.6801 21.5314 9.8254 24.4961 9.74528 26.2589C9.69186 27.4341 11.5214 28.0217 15.2338 28.0217C16.6493 29.1703 18.2384 29.7445 20.0011 29.7445C21.8707 29.7445 23.4598 29.1703 24.7685 28.0217C28.4275 28.0217 30.257 27.4341 30.257 26.2589C30.1768 24.4961 29.3222 21.5314 27.693 17.3647V16.924ZM20.0011 28.0217C18.3452 28.0217 16.9364 27.4408 15.7746 26.279C14.6128 25.1171 14.0319 23.7082 14.0319 22.0522V16.924C14.0319 15.3749 14.5928 13.9726 15.7145 12.7173C16.3555 14.9609 19.7474 16.0826 25.8902 16.0826C25.9436 16.2429 25.9703 16.5234 25.9703 16.924V22.0522C25.9703 23.7082 25.3894 25.1171 24.2276 26.279C23.0659 27.4408 21.657 28.0217 20.0011 28.0217ZM20.0011 22.8935C20.562 22.8935 20.8424 22.6131 20.8424 22.0522V21.2109H19.1598V22.0522C19.1598 22.6131 19.4403 22.8935 20.0011 22.8935ZM17.4372 18.6468C17.4372 18.8604 17.3504 19.0541 17.1768 19.2277C17.0032 19.4013 16.8095 19.4881 16.5959 19.4881C16.3555 19.4881 16.1485 19.4013 15.9749 19.2277C15.8013 19.0541 15.7145 18.8604 15.7145 18.6468C15.7145 18.4064 15.8013 18.1994 15.9749 18.0258C16.1485 17.8521 16.3555 17.7653 16.5959 17.7653C16.8095 17.7653 17.0032 17.8521 17.1768 18.0258C17.3504 18.1994 17.4372 18.4064 17.4372 18.6468ZM24.2877 18.6468C24.2877 18.8604 24.2009 19.0541 24.0273 19.2277C23.8537 19.4013 23.6467 19.4881 23.4064 19.4881C23.1927 19.4881 22.9991 19.4013 22.8255 19.2277C22.6519 19.0541 22.5651 18.8604 22.5651 18.6468C22.5651 18.4064 22.6519 18.1994 22.8255 18.0258C22.9991 17.8521 23.1927 17.7653 23.4064 17.7653C23.6467 17.7653 23.8537 17.8521 24.0273 18.0258C24.2009 18.1994 24.2877 18.4064 24.2877 18.6468ZM19.1598 25.4576H20.8424C21.3232 25.4576 21.7305 25.2907 22.0643 24.9568C22.3982 24.623 22.5651 24.229 22.5651 23.775H17.4372C17.4372 24.229 17.6041 24.623 17.9379 24.9568C18.2718 25.2907 18.6791 25.4576 19.1598 25.4576Z" fill="white"/>
</svg>
