<svg width="12" height="12" viewBox="0 0 12 12" fill="none" xmlns="http://www.w3.org/2000/svg">
<path d="M5.04894 2.92705C5.3483 2.00574 6.6517 2.00574 6.95106 2.92705L7.12257 3.45491C7.25644 3.86694 7.6404 4.1459 8.07363 4.1459H8.62865C9.59738 4.1459 10.0002 5.38551 9.21644 5.95492L8.76741 6.28115C8.41693 6.5358 8.27027 6.98716 8.40414 7.39919L8.57565 7.92705C8.87501 8.84836 7.82053 9.61449 7.03681 9.04508L6.58779 8.71885C6.2373 8.4642 5.7627 8.4642 5.41221 8.71885L4.96319 9.04508C4.17947 9.61449 3.12499 8.84836 3.42435 7.92705L3.59586 7.39919C3.72973 6.98716 3.58307 6.5358 3.23259 6.28115L2.78356 5.95492C1.99985 5.38551 2.40262 4.1459 3.37135 4.1459H3.92637C4.3596 4.1459 4.74356 3.86694 4.87743 3.45491L5.04894 2.92705Z" fill="#FAAD18"/>
</svg>
