<svg width="28" height="28" viewBox="0 0 28 28" fill="none" xmlns="http://www.w3.org/2000/svg">
<path d="M13.1523 22H14.8556C15.1868 22 15.4549 21.7319 15.4549 21.4007V20.6752C15.4549 20.3282 15.6757 20.0128 16.0069 19.9024C16.2671 19.8157 16.5274 19.7132 16.7718 19.587C17.0793 19.4372 17.4421 19.4924 17.6787 19.7289L18.207 20.2573C18.4436 20.4938 18.8221 20.4938 19.0586 20.2573L20.2652 19.0508C20.5017 18.8142 20.5017 18.4357 20.2652 18.1991L19.7289 17.6629C19.4924 17.4263 19.4372 17.0636 19.587 16.7639C19.7053 16.5116 19.8157 16.2592 19.9024 15.999C20.0207 15.6678 20.3204 15.447 20.6673 15.447H21.4165C21.7477 15.447 22.0158 15.1789 22.0158 14.8477V13.1444C22.0158 12.8132 21.7477 12.5451 21.4165 12.5451H20.6516C20.3125 12.5451 20.0049 12.3243 19.8945 12.001C19.8078 11.7486 19.6974 11.4963 19.5791 11.2518C19.4293 10.9443 19.4845 10.5816 19.721 10.345L20.273 9.793C20.3834 9.67472 20.4465 9.53277 20.4465 9.36718C20.4465 9.20158 20.3834 9.05175 20.273 8.94135L19.0665 7.73484C18.83 7.49827 18.4515 7.49827 18.2149 7.73484L17.655 8.29473C17.4184 8.5313 17.0557 8.5865 16.7482 8.43667C16.5037 8.31838 16.2514 8.21587 15.999 8.12913C15.6757 8.01873 15.4549 7.71907 15.4549 7.37999V6.59931C15.4549 6.26811 15.1868 6 14.8556 6H13.1523C12.8211 6 12.553 6.26811 12.553 6.59931V7.37999C12.553 7.71907 12.3322 8.01873 12.0089 8.12913C11.7565 8.21587 11.5042 8.31838 11.2597 8.43667C10.9522 8.5865 10.5895 8.5313 10.3529 8.29473L9.793 7.73484C9.5722 7.50616 9.17792 7.50616 8.94924 7.73484L7.74273 8.94135C7.63233 9.05964 7.56925 9.20158 7.56925 9.36718C7.56925 9.53277 7.63233 9.6826 7.74273 9.793L8.29473 10.345C8.5313 10.5816 8.5865 10.9443 8.43667 11.2518C8.3105 11.4963 8.20798 11.7486 8.12124 12.001C8.01084 12.3243 7.7033 12.5451 7.36422 12.5451H6.59931C6.26811 12.5451 6 12.8132 6 13.1444V14.8477C6 15.1789 6.26811 15.447 6.59931 15.447H7.34845C7.69542 15.447 8.00296 15.6678 8.11336 15.999C8.2001 16.2592 8.3105 16.5195 8.42878 16.7639C8.57861 17.0636 8.52341 17.4263 8.28684 17.6629L7.75062 18.1991C7.51405 18.4357 7.51405 18.8142 7.75062 19.0508L8.95712 20.2573C9.17792 20.486 9.5722 20.486 9.80089 20.2573L10.3292 19.7289C10.5658 19.4924 10.9285 19.4372 11.2361 19.587C11.4884 19.7053 11.7408 19.8157 12.001 19.9024C12.3322 20.0207 12.553 20.3282 12.553 20.6752V21.4007C12.553 21.7319 12.8211 22 13.1523 22Z" stroke="#1D1D1D" stroke-width="1.25"/>
<path d="M11 14C11 15.6537 12.3463 17 14 17C15.6537 17 17 15.6537 17 14C17 12.3463 15.6537 11 14 11C12.3463 11 11 12.3463 11 14Z" stroke="#1D1D1D" stroke-width="1.25"/>
</svg>
