<svg width="102" height="33" viewBox="0 0 102 33" fill="none" xmlns="http://www.w3.org/2000/svg">
<path d="M14.984 25H19.328L13.232 8.152H8.48L2.384 25H6.68L7.688 22.024H13.976L14.984 25ZM12.92 18.856H8.768L10.832 12.688L12.92 18.856ZM25.2873 13.504V11.608H21.1833V31.384H25.2873V23.128C26.0313 24.256 27.4473 25.192 29.4153 25.192C32.7033 25.192 35.3193 22.504 35.3193 18.28C35.3193 14.056 32.7033 11.416 29.4153 11.416C27.4473 11.416 26.0313 12.328 25.2873 13.504ZM31.1433 18.28C31.1433 20.416 29.7513 21.616 28.1913 21.616C26.6553 21.616 25.2633 20.44 25.2633 18.304C25.2633 16.168 26.6553 14.992 28.1913 14.992C29.7513 14.992 31.1433 16.144 31.1433 18.28ZM41.5764 18.784C41.5764 16.48 42.7044 15.808 44.6484 15.808H45.7764V11.464C43.9764 11.464 42.5124 12.424 41.5764 13.84V11.608H37.4724V25H41.5764V18.784ZM60.842 18.304C60.842 14.056 57.818 11.416 53.882 11.416C49.97 11.416 46.922 14.056 46.922 18.304C46.922 22.552 49.898 25.192 53.834 25.192C57.77 25.192 60.842 22.552 60.842 18.304ZM51.098 18.304C51.098 16.024 52.394 14.968 53.882 14.968C55.322 14.968 56.666 16.024 56.666 18.304C56.666 20.56 55.298 21.64 53.834 21.64C52.346 21.64 51.098 20.56 51.098 18.304ZM67.3633 22.984C67.3633 21.712 66.3793 20.728 64.9393 20.728C63.4753 20.728 62.4913 21.712 62.4913 22.984C62.4913 24.208 63.4753 25.192 64.9393 25.192C66.3793 25.192 67.3633 24.208 67.3633 22.984ZM68.9767 18.28C68.9767 22.504 71.5927 25.192 74.8807 25.192C76.8487 25.192 78.2647 24.256 79.0087 23.08V24.976C79.0087 27.232 77.7847 28.048 76.2247 28.048C74.8087 28.048 73.8007 27.4 73.5367 26.392H69.4807C69.8407 29.584 72.4327 31.6 76.4167 31.6C81.0487 31.6 83.1127 28.552 83.1127 24.976V11.608H79.0087V13.504C78.2887 12.304 76.8487 11.416 74.8807 11.416C71.5927 11.416 68.9767 14.056 68.9767 18.28ZM79.0087 18.304C79.0087 20.44 77.6407 21.616 76.0807 21.616C74.5447 21.616 73.1527 20.416 73.1527 18.28C73.1527 16.144 74.5447 14.992 76.0807 14.992C77.6407 14.992 79.0087 16.168 79.0087 18.304ZM99.1858 18.304C99.1858 14.056 96.1618 11.416 92.2258 11.416C88.3138 11.416 85.2658 14.056 85.2658 18.304C85.2658 22.552 88.2418 25.192 92.1778 25.192C96.1138 25.192 99.1858 22.552 99.1858 18.304ZM89.4418 18.304C89.4418 16.024 90.7378 14.968 92.2258 14.968C93.6658 14.968 95.0098 16.024 95.0098 18.304C95.0098 20.56 93.6418 21.64 92.1778 21.64C90.6898 21.64 89.4418 20.56 89.4418 18.304Z" fill="#4E35E7"/>
</svg>
