<svg width="234" height="80" viewBox="0 0 234 80" fill="none" xmlns="http://www.w3.org/2000/svg">
<path d="M72.23 51H77.66L70.04 29.94H64.1L56.48 51H61.85L63.11 47.28H70.97L72.23 51ZM69.65 43.32H64.46L67.04 35.61L69.65 43.32ZM85.1091 36.63V34.26H79.9791V58.98H85.1091V48.66C86.0391 50.07 87.8091 51.24 90.2691 51.24C94.3791 51.24 97.6491 47.88 97.6491 42.6C97.6491 37.32 94.3791 34.02 90.2691 34.02C87.8091 34.02 86.0391 35.16 85.1091 36.63ZM92.4291 42.6C92.4291 45.27 90.6891 46.77 88.7391 46.77C86.8191 46.77 85.0791 45.3 85.0791 42.63C85.0791 39.96 86.8191 38.49 88.7391 38.49C90.6891 38.49 92.4291 39.93 92.4291 42.6ZM105.47 43.23C105.47 40.35 106.88 39.51 109.31 39.51H110.72V34.08C108.47 34.08 106.64 35.28 105.47 37.05V34.26H100.34V51H105.47V43.23ZM129.553 42.63C129.553 37.32 125.773 34.02 120.853 34.02C115.963 34.02 112.153 37.32 112.153 42.63C112.153 47.94 115.873 51.24 120.793 51.24C125.713 51.24 129.553 47.94 129.553 42.63ZM117.373 42.63C117.373 39.78 118.993 38.46 120.853 38.46C122.653 38.46 124.333 39.78 124.333 42.63C124.333 45.45 122.623 46.8 120.793 46.8C118.933 46.8 117.373 45.45 117.373 42.63ZM137.704 48.48C137.704 46.89 136.474 45.66 134.674 45.66C132.844 45.66 131.614 46.89 131.614 48.48C131.614 50.01 132.844 51.24 134.674 51.24C136.474 51.24 137.704 50.01 137.704 48.48ZM139.721 42.6C139.721 47.88 142.991 51.24 147.101 51.24C149.561 51.24 151.331 50.07 152.261 48.6V50.97C152.261 53.79 150.731 54.81 148.781 54.81C147.011 54.81 145.751 54 145.421 52.74H140.351C140.801 56.73 144.041 59.25 149.021 59.25C154.811 59.25 157.391 55.44 157.391 50.97V34.26H152.261V36.63C151.361 35.13 149.561 34.02 147.101 34.02C142.991 34.02 139.721 37.32 139.721 42.6ZM152.261 42.63C152.261 45.3 150.551 46.77 148.601 46.77C146.681 46.77 144.941 45.27 144.941 42.6C144.941 39.93 146.681 38.49 148.601 38.49C150.551 38.49 152.261 39.96 152.261 42.63ZM177.482 42.63C177.482 37.32 173.702 34.02 168.782 34.02C163.892 34.02 160.082 37.32 160.082 42.63C160.082 47.94 163.802 51.24 168.722 51.24C173.642 51.24 177.482 47.94 177.482 42.63ZM165.302 42.63C165.302 39.78 166.922 38.46 168.782 38.46C170.582 38.46 172.262 39.78 172.262 42.63C172.262 45.45 170.552 46.8 168.722 46.8C166.862 46.8 165.302 45.45 165.302 42.63Z" fill="#4E35E7"/>
</svg>
