<svg width="1052" height="64" viewBox="0 0 1052 64" fill="none" xmlns="http://www.w3.org/2000/svg">
<mask id="mask0_414_19152" style="mask-type:alpha" maskUnits="userSpaceOnUse" x="0" y="0" width="1052" height="64">
<rect width="1052" height="64" rx="8" fill="#4E35E7"/>
</mask>
<g mask="url(#mask0_414_19152)">
<g opacity="0.5">
<path style="mix-blend-mode:color-burn" d="M950.76 -184C900.65 -172.36 825.11 -123.14 753.12 -51.15C681.13 20.84 631.91 96.38 620.27 146.49L950.76 -184Z" fill="url(#paint0_radial_414_19152)"/>
<path style="mix-blend-mode:color-burn" d="M575.25 -95.2998C554.9 -90.5698 524.21 -70.5798 494.97 -41.3298C465.72 -12.0998 445.73 18.5902 441 38.9502L575.25 -95.2998Z" fill="url(#paint1_radial_414_19152)"/>
<path style="mix-blend-mode:color-burn" d="M880.98 -5.39014C843.16 3.38986 786.15 40.5399 731.82 94.8699C677.49 149.2 640.34 206.21 631.56 244.03L880.98 -5.39014Z" fill="url(#paint2_radial_414_19152)"/>
</g>
<g opacity="0.5">
<g style="mix-blend-mode:overlay">
<g style="mix-blend-mode:overlay">
<path d="M766.02 2.04C766.02 2.04 766.04 2.04 766.04 2.02C766.04 2 766.04 2 766.02 2C766 2 766 2 766 2.02C766 2.04 766.01 2.04 766.02 2.04Z" fill="#474747"/>
</g>
<g style="mix-blend-mode:overlay">
<path d="M774.02 2.13015C774.08 2.13015 774.13 2.08015 774.13 2.02015C774.13 1.96015 774.08 1.91016 774.02 1.91016C773.96 1.91016 773.91 1.96015 773.91 2.02015C773.91 2.08015 773.96 2.13015 774.02 2.13015Z" fill="#474747"/>
</g>
<g style="mix-blend-mode:overlay">
<path d="M782.02 2.21983C782.13 2.21983 782.22 2.12982 782.22 2.01982C782.22 1.90982 782.13 1.81982 782.02 1.81982C781.91 1.81982 781.82 1.90982 781.82 2.01982C781.82 2.12982 781.91 2.21983 782.02 2.21983Z" fill="#474747"/>
</g>
<g style="mix-blend-mode:overlay">
<path d="M790.02 2.32996C790.19 2.32996 790.33 2.18996 790.33 2.01996C790.33 1.84996 790.19 1.70996 790.02 1.70996C789.85 1.70996 789.71 1.84996 789.71 2.01996C789.71 2.18996 789.85 2.32996 790.02 2.32996Z" fill="#474747"/>
</g>
<g style="mix-blend-mode:overlay">
<path d="M798.02 2.42011C798.24 2.42011 798.42 2.24011 798.42 2.02011C798.42 1.80011 798.24 1.62012 798.02 1.62012C797.8 1.62012 797.62 1.80011 797.62 2.02011C797.62 2.24011 797.8 2.42011 798.02 2.42011Z" fill="#474747"/>
</g>
<g style="mix-blend-mode:overlay">
<path d="M806.02 2.50979C806.29 2.50979 806.51 2.28978 806.51 2.01978C806.51 1.74978 806.29 1.52979 806.02 1.52979C805.75 1.52979 805.53 1.74978 805.53 2.01978C805.53 2.28978 805.75 2.50979 806.02 2.50979Z" fill="#474747"/>
</g>
<g style="mix-blend-mode:overlay">
<path d="M814.02 2.59994C814.34 2.59994 814.6 2.33994 814.6 2.01994C814.6 1.69994 814.34 1.43994 814.02 1.43994C813.7 1.43994 813.44 1.69994 813.44 2.01994C813.44 2.33994 813.7 2.59994 814.02 2.59994Z" fill="#474747"/>
</g>
<g style="mix-blend-mode:overlay">
<path d="M822.02 2.6901C822.39 2.6901 822.69 2.3901 822.69 2.0201C822.69 1.6501 822.39 1.3501 822.02 1.3501C821.65 1.3501 821.35 1.6501 821.35 2.0201C821.35 2.3901 821.65 2.6901 822.02 2.6901Z" fill="#474747"/>
</g>
<g style="mix-blend-mode:overlay">
<path d="M830.02 2.75004C830.42 2.75004 830.75 2.42003 830.75 2.02003C830.75 1.62003 830.42 1.29004 830.02 1.29004C829.62 1.29004 829.29 1.62003 829.29 2.02003C829.29 2.42003 829.62 2.75004 830.02 2.75004Z" fill="#474747"/>
</g>
<g style="mix-blend-mode:overlay">
<path d="M838.02 2.84019C838.47 2.84019 838.84 2.4702 838.84 2.0202C838.84 1.5702 838.47 1.2002 838.02 1.2002C837.57 1.2002 837.2 1.5702 837.2 2.0202C837.2 2.4702 837.57 2.84019 838.02 2.84019Z" fill="#474747"/>
</g>
<g style="mix-blend-mode:overlay">
<path d="M846.02 2.90989C846.51 2.90989 846.91 2.50988 846.91 2.01988C846.91 1.52988 846.51 1.12988 846.02 1.12988C845.53 1.12988 845.13 1.52988 845.13 2.01988C845.13 2.50988 845.53 2.90989 846.02 2.90989Z" fill="#474747"/>
</g>
<g style="mix-blend-mode:overlay">
<path d="M854.02 2.98008C854.55 2.98008 854.97 2.55008 854.97 2.03008C854.97 1.51008 854.54 1.08008 854.02 1.08008C853.5 1.08008 853.07 1.51008 853.07 2.03008C853.07 2.55008 853.5 2.98008 854.02 2.98008Z" fill="#474747"/>
</g>
<g style="mix-blend-mode:overlay">
<path d="M862.02 3.04C862.58 3.04 863.04 2.58 863.04 2.02C863.04 1.46 862.58 1 862.02 1C861.46 1 861 1.46 861 2.02C861 2.58 861.46 3.04 862.02 3.04Z" fill="#474747"/>
</g>
<g style="mix-blend-mode:overlay">
<path d="M870.02 3.11018C870.62 3.11018 871.11 2.62017 871.11 2.02017C871.11 1.42017 870.62 0.930176 870.02 0.930176C869.42 0.930176 868.93 1.42017 868.93 2.02017C868.93 2.62017 869.42 3.11018 870.02 3.11018Z" fill="#474747"/>
</g>
<g style="mix-blend-mode:overlay">
<path d="M878.02 3.15014C878.64 3.15014 879.15 2.64013 879.15 2.02013C879.15 1.40013 878.64 0.890137 878.02 0.890137C877.4 0.890137 876.89 1.40013 876.89 2.02013C876.89 2.64013 877.4 3.15014 878.02 3.15014Z" fill="#474747"/>
</g>
<g style="mix-blend-mode:overlay">
<path d="M886.02 3.19984C886.67 3.19984 887.2 2.66984 887.2 2.01984C887.2 1.36984 886.67 0.839844 886.02 0.839844C885.37 0.839844 884.84 1.36984 884.84 2.01984C884.84 2.66984 885.37 3.19984 886.02 3.19984Z" fill="#474747"/>
</g>
<g style="mix-blend-mode:overlay">
<path d="M894.02 3.21983C894.68 3.21983 895.22 2.67982 895.22 2.01982C895.22 1.35982 894.68 0.819824 894.02 0.819824C893.36 0.819824 892.82 1.35982 892.82 2.01982C892.82 2.67982 893.36 3.21983 894.02 3.21983Z" fill="#474747"/>
</g>
<g style="mix-blend-mode:overlay">
<path d="M902.02 3.2398C902.69 3.2398 903.24 2.6898 903.24 2.0198C903.24 1.3498 902.69 0.799805 902.02 0.799805C901.35 0.799805 900.8 1.3498 900.8 2.0198C900.8 2.6898 901.35 3.2398 902.02 3.2398Z" fill="#474747"/>
</g>
<g style="mix-blend-mode:overlay">
<path d="M910.02 3.25979C910.71 3.25979 911.26 2.69978 911.26 2.01978C911.26 1.33978 910.7 0.779785 910.02 0.779785C909.34 0.779785 908.78 1.33978 908.78 2.01978C908.78 2.69978 909.34 3.25979 910.02 3.25979Z" fill="#474747"/>
</g>
<g style="mix-blend-mode:overlay">
<path d="M918.02 3.25979C918.71 3.25979 919.26 2.69978 919.26 2.01978C919.26 1.33978 918.7 0.779785 918.02 0.779785C917.34 0.779785 916.78 1.33978 916.78 2.01978C916.78 2.69978 917.34 3.25979 918.02 3.25979Z" fill="#474747"/>
</g>
<g style="mix-blend-mode:overlay">
<path d="M926.02 3.25979C926.71 3.25979 927.26 2.69978 927.26 2.01978C927.26 1.33978 926.7 0.779785 926.02 0.779785C925.34 0.779785 924.78 1.33978 924.78 2.01978C924.78 2.69978 925.34 3.25979 926.02 3.25979Z" fill="#474747"/>
</g>
<g style="mix-blend-mode:overlay">
<path d="M934.02 3.2398C934.69 3.2398 935.24 2.6898 935.24 2.0198C935.24 1.3498 934.69 0.799805 934.02 0.799805C933.35 0.799805 932.8 1.3498 932.8 2.0198C932.8 2.6898 933.35 3.2398 934.02 3.2398Z" fill="#474747"/>
</g>
<g style="mix-blend-mode:overlay">
<path d="M942.02 3.21983C942.68 3.21983 943.22 2.67982 943.22 2.01982C943.22 1.35982 942.68 0.819824 942.02 0.819824C941.36 0.819824 940.82 1.35982 940.82 2.01982C940.82 2.67982 941.36 3.21983 942.02 3.21983Z" fill="#474747"/>
</g>
<g style="mix-blend-mode:overlay">
<path d="M950.02 3.19984C950.67 3.19984 951.2 2.66984 951.2 2.01984C951.2 1.36984 950.67 0.839844 950.02 0.839844C949.37 0.839844 948.84 1.36984 948.84 2.01984C948.84 2.66984 949.37 3.19984 950.02 3.19984Z" fill="#474747"/>
</g>
<g style="mix-blend-mode:overlay">
<path d="M958.02 3.15014C958.64 3.15014 959.15 2.64013 959.15 2.02013C959.15 1.40013 958.64 0.890137 958.02 0.890137C957.4 0.890137 956.89 1.40013 956.89 2.02013C956.89 2.64013 957.4 3.15014 958.02 3.15014Z" fill="#474747"/>
</g>
<g style="mix-blend-mode:overlay">
<path d="M966.02 3.11018C966.62 3.11018 967.11 2.62017 967.11 2.02017C967.11 1.42017 966.62 0.930176 966.02 0.930176C965.42 0.930176 964.93 1.42017 964.93 2.02017C964.93 2.62017 965.42 3.11018 966.02 3.11018Z" fill="#474747"/>
</g>
<g style="mix-blend-mode:overlay">
<path d="M974.02 3.05997C974.6 3.05997 975.06 2.58997 975.06 2.01997C975.06 1.44997 974.59 0.97998 974.02 0.97998C973.45 0.97998 972.98 1.44997 972.98 2.01997C972.98 2.58997 973.45 3.05997 974.02 3.05997Z" fill="#474747"/>
</g>
<g style="mix-blend-mode:overlay">
<path d="M982.02 3.00004C982.56 3.00004 983 2.56003 983 2.02003C983 1.48003 982.56 1.04004 982.02 1.04004C981.48 1.04004 981.04 1.48003 981.04 2.02003C981.04 2.56003 981.48 3.00004 982.02 3.00004Z" fill="#474747"/>
</g>
<g style="mix-blend-mode:overlay">
<path d="M990.02 2.92986C990.52 2.92986 990.93 2.51986 990.93 2.01986C990.93 1.51986 990.52 1.10986 990.02 1.10986C989.52 1.10986 989.11 1.51986 989.11 2.01986C989.11 2.51986 989.52 2.92986 990.02 2.92986Z" fill="#474747"/>
</g>
<g style="mix-blend-mode:overlay">
<path d="M998.02 2.84019C998.47 2.84019 998.84 2.4702 998.84 2.0202C998.84 1.5702 998.47 1.2002 998.02 1.2002C997.57 1.2002 997.2 1.5702 997.2 2.0202C997.2 2.4702 997.57 2.84019 998.02 2.84019Z" fill="#474747"/>
</g>
<g style="mix-blend-mode:overlay">
<path d="M1006.02 2.77979C1006.44 2.77979 1006.77 2.43979 1006.77 2.02979C1006.77 1.61979 1006.43 1.27979 1006.02 1.27979C1005.61 1.27979 1005.27 1.61979 1005.27 2.02979C1005.27 2.43979 1005.61 2.77979 1006.02 2.77979Z" fill="#474747"/>
</g>
<g style="mix-blend-mode:overlay">
<path d="M1014.02 2.6901C1014.39 2.6901 1014.69 2.3901 1014.69 2.0201C1014.69 1.6501 1014.39 1.3501 1014.02 1.3501C1013.65 1.3501 1013.35 1.6501 1013.35 2.0201C1013.35 2.3901 1013.65 2.6901 1014.02 2.6901Z" fill="#474747"/>
</g>
<g style="mix-blend-mode:overlay">
<path d="M1022.02 2.59994C1022.34 2.59994 1022.6 2.33994 1022.6 2.01994C1022.6 1.69994 1022.34 1.43994 1022.02 1.43994C1021.7 1.43994 1021.44 1.69994 1021.44 2.01994C1021.44 2.33994 1021.7 2.59994 1022.02 2.59994Z" fill="#474747"/>
</g>
<g style="mix-blend-mode:overlay">
<path d="M1030.02 2.50979C1030.29 2.50979 1030.51 2.28978 1030.51 2.01978C1030.51 1.74978 1030.29 1.52979 1030.02 1.52979C1029.75 1.52979 1029.53 1.74978 1029.53 2.01978C1029.53 2.28978 1029.75 2.50979 1030.02 2.50979Z" fill="#474747"/>
</g>
<g style="mix-blend-mode:overlay">
<path d="M1038.02 2.42011C1038.24 2.42011 1038.42 2.24011 1038.42 2.02011C1038.42 1.80011 1038.24 1.62012 1038.02 1.62012C1037.8 1.62012 1037.62 1.80011 1037.62 2.02011C1037.62 2.24011 1037.8 2.42011 1038.02 2.42011Z" fill="#474747"/>
</g>
<g style="mix-blend-mode:overlay">
<path d="M1046.02 2.32996C1046.19 2.32996 1046.33 2.18996 1046.33 2.01996C1046.33 1.84996 1046.19 1.70996 1046.02 1.70996C1045.85 1.70996 1045.71 1.84996 1045.71 2.01996C1045.71 2.18996 1045.85 2.32996 1046.02 2.32996Z" fill="#474747"/>
</g>
<g style="mix-blend-mode:overlay">
<path d="M766.02 10.0902C766.02 10.0902 766.09 10.0602 766.09 10.0202C766.09 9.9802 766.06 9.9502 766.02 9.9502C765.98 9.9502 765.95 9.9802 765.95 10.0202C765.95 10.0602 765.98 10.0902 766.02 10.0902Z" fill="#474747"/>
</g>
<g style="mix-blend-mode:overlay">
<path d="M774.02 10.1998C774.12 10.1998 774.2 10.1198 774.2 10.0198C774.2 9.91984 774.12 9.83984 774.02 9.83984C773.92 9.83984 773.84 9.91984 773.84 10.0198C773.84 10.1198 773.92 10.1998 774.02 10.1998Z" fill="#474747"/>
</g>
<g style="mix-blend-mode:overlay">
<path d="M782.02 10.31C782.18 10.31 782.31 10.18 782.31 10.02C782.31 9.85997 782.18 9.72998 782.02 9.72998C781.86 9.72998 781.73 9.85997 781.73 10.02C781.73 10.18 781.86 10.31 782.02 10.31Z" fill="#474747"/>
</g>
<g style="mix-blend-mode:overlay">
<path d="M790.02 10.4001C790.23 10.4001 790.4 10.2301 790.4 10.0201C790.4 9.81013 790.23 9.64014 790.02 9.64014C789.81 9.64014 789.64 9.81013 789.64 10.0201C789.64 10.2301 789.81 10.4001 790.02 10.4001Z" fill="#474747"/>
</g>
<g style="mix-blend-mode:overlay">
<path d="M798.02 10.4898C798.28 10.4898 798.49 10.2798 798.49 10.0198C798.49 9.7598 798.28 9.5498 798.02 9.5498C797.76 9.5498 797.55 9.7598 797.55 10.0198C797.55 10.2798 797.76 10.4898 798.02 10.4898Z" fill="#474747"/>
</g>
<g style="mix-blend-mode:overlay">
<path d="M806.02 10.5999C806.34 10.5999 806.6 10.3399 806.6 10.0199C806.6 9.69994 806.34 9.43994 806.02 9.43994C805.7 9.43994 805.44 9.69994 805.44 10.0199C805.44 10.3399 805.7 10.5999 806.02 10.5999Z" fill="#474747"/>
</g>
<g style="mix-blend-mode:overlay">
<path d="M814.02 10.6901C814.39 10.6901 814.69 10.3901 814.69 10.0201C814.69 9.6501 814.39 9.3501 814.02 9.3501C813.65 9.3501 813.35 9.6501 813.35 10.0201C813.35 10.3901 813.65 10.6901 814.02 10.6901Z" fill="#474747"/>
</g>
<g style="mix-blend-mode:overlay">
<path d="M822.02 10.7798C822.44 10.7798 822.77 10.4398 822.77 10.0298C822.77 9.61979 822.43 9.27979 822.02 9.27979C821.61 9.27979 821.27 9.61979 821.27 10.0298C821.27 10.4398 821.61 10.7798 822.02 10.7798Z" fill="#474747"/>
</g>
<g style="mix-blend-mode:overlay">
<path d="M830.02 10.8699C830.49 10.8699 830.86 10.4899 830.86 10.0299C830.86 9.56994 830.48 9.18994 830.02 9.18994C829.56 9.18994 829.18 9.56994 829.18 10.0299C829.18 10.4899 829.56 10.8699 830.02 10.8699Z" fill="#474747"/>
</g>
<g style="mix-blend-mode:overlay">
<path d="M838.02 10.9299C838.52 10.9299 838.93 10.5199 838.93 10.0199C838.93 9.51986 838.52 9.10986 838.02 9.10986C837.52 9.10986 837.11 9.51986 837.11 10.0199C837.11 10.5199 837.52 10.9299 838.02 10.9299Z" fill="#474747"/>
</g>
<g style="mix-blend-mode:overlay">
<path d="M846.02 11.02C846.57 11.02 847.02 10.57 847.02 10.02C847.02 9.47002 846.57 9.02002 846.02 9.02002C845.47 9.02002 845.02 9.47002 845.02 10.02C845.02 10.57 845.47 11.02 846.02 11.02Z" fill="#474747"/>
</g>
<g style="mix-blend-mode:overlay">
<path d="M854.02 11.0902C854.61 11.0902 855.08 10.6102 855.08 10.0302C855.08 9.45021 854.6 8.97021 854.02 8.97021C853.44 8.97021 852.96 9.45021 852.96 10.0302C852.96 10.6102 853.44 11.0902 854.02 11.0902Z" fill="#474747"/>
</g>
<g style="mix-blend-mode:overlay">
<path d="M862.02 11.1501C862.64 11.1501 863.15 10.6401 863.15 10.0201C863.15 9.40013 862.64 8.89014 862.02 8.89014C861.4 8.89014 860.89 9.40013 860.89 10.0201C860.89 10.6401 861.4 11.1501 862.02 11.1501Z" fill="#474747"/>
</g>
<g style="mix-blend-mode:overlay">
<path d="M870.02 11.2198C870.68 11.2198 871.22 10.6798 871.22 10.0198C871.22 9.35982 870.68 8.81982 870.02 8.81982C869.36 8.81982 868.82 9.35982 868.82 10.0198C868.82 10.6798 869.36 11.2198 870.02 11.2198Z" fill="#474747"/>
</g>
<g style="mix-blend-mode:overlay">
<path d="M878.02 11.2598C878.71 11.2598 879.26 10.6998 879.26 10.0198C879.26 9.33978 878.7 8.77979 878.02 8.77979C877.34 8.77979 876.78 9.33978 876.78 10.0198C876.78 10.6998 877.34 11.2598 878.02 11.2598Z" fill="#474747"/>
</g>
<g style="mix-blend-mode:overlay">
<path d="M886.02 11.31C886.73 11.31 887.31 10.73 887.31 10.02C887.31 9.30997 886.73 8.72998 886.02 8.72998C885.31 8.72998 884.73 9.30997 884.73 10.02C884.73 10.73 885.31 11.31 886.02 11.31Z" fill="#474747"/>
</g>
<g style="mix-blend-mode:overlay">
<path d="M894.02 11.3499C894.76 11.3499 895.35 10.7499 895.35 10.0199C895.35 9.28994 894.75 8.68994 894.02 8.68994C893.29 8.68994 892.69 9.28994 892.69 10.0199C892.69 10.7499 893.29 11.3499 894.02 11.3499Z" fill="#474747"/>
</g>
<g style="mix-blend-mode:overlay">
<path d="M902.02 11.3802C902.77 11.3802 903.37 10.7702 903.37 10.0302C903.37 9.29017 902.76 8.68018 902.02 8.68018C901.28 8.68018 900.67 9.29017 900.67 10.0302C900.67 10.7702 901.28 11.3802 902.02 11.3802Z" fill="#474747"/>
</g>
<g style="mix-blend-mode:overlay">
<path d="M910.02 11.3802C910.77 11.3802 911.37 10.7702 911.37 10.0302C911.37 9.29017 910.76 8.68018 910.02 8.68018C909.28 8.68018 908.67 9.29017 908.67 10.0302C908.67 10.7702 909.28 11.3802 910.02 11.3802Z" fill="#474747"/>
</g>
<g style="mix-blend-mode:overlay">
<path d="M918.02 11.4001C918.78 11.4001 919.4 10.7801 919.4 10.0201C919.4 9.26013 918.78 8.64014 918.02 8.64014C917.26 8.64014 916.64 9.26013 916.64 10.0201C916.64 10.7801 917.26 11.4001 918.02 11.4001Z" fill="#474747"/>
</g>
<g style="mix-blend-mode:overlay">
<path d="M926.02 11.4001C926.78 11.4001 927.4 10.7801 927.4 10.0201C927.4 9.26013 926.78 8.64014 926.02 8.64014C925.26 8.64014 924.64 9.26013 924.64 10.0201C924.64 10.7801 925.26 11.4001 926.02 11.4001Z" fill="#474747"/>
</g>
<g style="mix-blend-mode:overlay">
<path d="M934.02 11.3802C934.77 11.3802 935.37 10.7702 935.37 10.0302C935.37 9.29017 934.76 8.68018 934.02 8.68018C933.28 8.68018 932.67 9.29017 932.67 10.0302C932.67 10.7702 933.28 11.3802 934.02 11.3802Z" fill="#474747"/>
</g>
<g style="mix-blend-mode:overlay">
<path d="M942.02 11.3499C942.76 11.3499 943.35 10.7499 943.35 10.0199C943.35 9.28994 942.75 8.68994 942.02 8.68994C941.29 8.68994 940.69 9.28994 940.69 10.0199C940.69 10.7499 941.29 11.3499 942.02 11.3499Z" fill="#474747"/>
</g>
<g style="mix-blend-mode:overlay">
<path d="M950.02 11.31C950.73 11.31 951.31 10.73 951.31 10.02C951.31 9.30997 950.73 8.72998 950.02 8.72998C949.31 8.72998 948.73 9.30997 948.73 10.02C948.73 10.73 949.31 11.31 950.02 11.31Z" fill="#474747"/>
</g>
<g style="mix-blend-mode:overlay">
<path d="M958.02 11.2598C958.71 11.2598 959.26 10.6998 959.26 10.0198C959.26 9.33978 958.7 8.77979 958.02 8.77979C957.34 8.77979 956.78 9.33978 956.78 10.0198C956.78 10.6998 957.34 11.2598 958.02 11.2598Z" fill="#474747"/>
</g>
<g style="mix-blend-mode:overlay">
<path d="M966.02 11.2198C966.68 11.2198 967.22 10.6798 967.22 10.0198C967.22 9.35982 966.68 8.81982 966.02 8.81982C965.36 8.81982 964.82 9.35982 964.82 10.0198C964.82 10.6798 965.36 11.2198 966.02 11.2198Z" fill="#474747"/>
</g>
<g style="mix-blend-mode:overlay">
<path d="M974.02 11.1501C974.64 11.1501 975.15 10.6401 975.15 10.0201C975.15 9.40013 974.64 8.89014 974.02 8.89014C973.4 8.89014 972.89 9.40013 972.89 10.0201C972.89 10.6401 973.4 11.1501 974.02 11.1501Z" fill="#474747"/>
</g>
<g style="mix-blend-mode:overlay">
<path d="M982.02 11.1102C982.62 11.1102 983.11 10.6202 983.11 10.0202C983.11 9.42017 982.62 8.93018 982.02 8.93018C981.42 8.93018 980.93 9.42017 980.93 10.0202C980.93 10.6202 981.42 11.1102 982.02 11.1102Z" fill="#474747"/>
</g>
<g style="mix-blend-mode:overlay">
<path d="M990.02 11.02C990.57 11.02 991.02 10.57 991.02 10.02C991.02 9.47002 990.57 9.02002 990.02 9.02002C989.47 9.02002 989.02 9.47002 989.02 10.02C989.02 10.57 989.47 11.02 990.02 11.02Z" fill="#474747"/>
</g>
<g style="mix-blend-mode:overlay">
<path d="M998.02 10.9498C998.53 10.9498 998.95 10.5298 998.95 10.0198C998.95 9.50984 998.53 9.08984 998.02 9.08984C997.51 9.08984 997.09 9.50984 997.09 10.0198C997.09 10.5298 997.51 10.9498 998.02 10.9498Z" fill="#474747"/>
</g>
<g style="mix-blend-mode:overlay">
<path d="M1006.02 10.8699C1006.49 10.8699 1006.86 10.4899 1006.86 10.0299C1006.86 9.56994 1006.48 9.18994 1006.02 9.18994C1005.56 9.18994 1005.18 9.56994 1005.18 10.0299C1005.18 10.4899 1005.56 10.8699 1006.02 10.8699Z" fill="#474747"/>
</g>
<g style="mix-blend-mode:overlay">
<path d="M1014.02 10.7798C1014.44 10.7798 1014.77 10.4398 1014.77 10.0298C1014.77 9.61979 1014.43 9.27979 1014.02 9.27979C1013.61 9.27979 1013.27 9.61979 1013.27 10.0298C1013.27 10.4398 1013.61 10.7798 1014.02 10.7798Z" fill="#474747"/>
</g>
<g style="mix-blend-mode:overlay">
<path d="M1022.02 10.6901C1022.39 10.6901 1022.69 10.3901 1022.69 10.0201C1022.69 9.6501 1022.39 9.3501 1022.02 9.3501C1021.65 9.3501 1021.35 9.6501 1021.35 10.0201C1021.35 10.3901 1021.65 10.6901 1022.02 10.6901Z" fill="#474747"/>
</g>
<g style="mix-blend-mode:overlay">
<path d="M1030.02 10.5999C1030.34 10.5999 1030.6 10.3399 1030.6 10.0199C1030.6 9.69994 1030.34 9.43994 1030.02 9.43994C1029.7 9.43994 1029.44 9.69994 1029.44 10.0199C1029.44 10.3399 1029.7 10.5999 1030.02 10.5999Z" fill="#474747"/>
</g>
<g style="mix-blend-mode:overlay">
<path d="M1038.02 10.5098C1038.29 10.5098 1038.51 10.2898 1038.51 10.0198C1038.51 9.74978 1038.29 9.52979 1038.02 9.52979C1037.75 9.52979 1037.53 9.74978 1037.53 10.0198C1037.53 10.2898 1037.75 10.5098 1038.02 10.5098Z" fill="#474747"/>
</g>
<g style="mix-blend-mode:overlay">
<path d="M1046.02 10.4001C1046.23 10.4001 1046.4 10.2301 1046.4 10.0201C1046.4 9.81013 1046.23 9.64014 1046.02 9.64014C1045.81 9.64014 1045.64 9.81013 1045.64 10.0201C1045.64 10.2301 1045.81 10.4001 1046.02 10.4001Z" fill="#474747"/>
</g>
<g style="mix-blend-mode:overlay">
<path d="M758.02 18.0702C758.02 18.0702 758.06 18.0502 758.06 18.0302C758.06 18.0102 758.04 17.9902 758.02 17.9902C758 17.9902 757.98 18.0102 757.98 18.0302C757.98 18.0502 758 18.0702 758.02 18.0702Z" fill="#474747"/>
</g>
<g style="mix-blend-mode:overlay">
<path d="M766.02 18.1599C766.09 18.1599 766.15 18.0999 766.15 18.0299C766.15 17.9599 766.09 17.8999 766.02 17.8999C765.95 17.8999 765.89 17.9599 765.89 18.0299C765.89 18.0999 765.95 18.1599 766.02 18.1599Z" fill="#474747"/>
</g>
<g style="mix-blend-mode:overlay">
<path d="M774.02 18.27C774.15 18.27 774.26 18.16 774.26 18.03C774.26 17.9 774.15 17.79 774.02 17.79C773.89 17.79 773.78 17.9 773.78 18.03C773.78 18.16 773.89 18.27 774.02 18.27Z" fill="#474747"/>
</g>
<g style="mix-blend-mode:overlay">
<path d="M782.02 18.3802C782.22 18.3802 782.37 18.2202 782.37 18.0302C782.37 17.8402 782.21 17.6802 782.02 17.6802C781.83 17.6802 781.67 17.8402 781.67 18.0302C781.67 18.2202 781.83 18.3802 782.02 18.3802Z" fill="#474747"/>
</g>
<g style="mix-blend-mode:overlay">
<path d="M790.02 18.4698C790.27 18.4698 790.46 18.2698 790.46 18.0298C790.46 17.7898 790.26 17.5898 790.02 17.5898C789.78 17.5898 789.58 17.7898 789.58 18.0298C789.58 18.2698 789.78 18.4698 790.02 18.4698Z" fill="#474747"/>
</g>
<g style="mix-blend-mode:overlay">
<path d="M798.02 18.58C798.33 18.58 798.57 18.33 798.57 18.03C798.57 17.73 798.32 17.48 798.02 17.48C797.72 17.48 797.47 17.73 797.47 18.03C797.47 18.33 797.72 18.58 798.02 18.58Z" fill="#474747"/>
</g>
<g style="mix-blend-mode:overlay">
<path d="M806.02 18.6701C806.38 18.6701 806.66 18.3801 806.66 18.0301C806.66 17.6801 806.37 17.3901 806.02 17.3901C805.67 17.3901 805.38 17.6801 805.38 18.0301C805.38 18.3801 805.67 18.6701 806.02 18.6701Z" fill="#474747"/>
</g>
<g style="mix-blend-mode:overlay">
<path d="M814.02 18.7798C814.44 18.7798 814.77 18.4398 814.77 18.0298C814.77 17.6198 814.43 17.2798 814.02 17.2798C813.61 17.2798 813.27 17.6198 813.27 18.0298C813.27 18.4398 813.61 18.7798 814.02 18.7798Z" fill="#474747"/>
</g>
<g style="mix-blend-mode:overlay">
<path d="M822.02 18.8699C822.49 18.8699 822.86 18.4899 822.86 18.0299C822.86 17.5699 822.48 17.1899 822.02 17.1899C821.56 17.1899 821.18 17.5699 821.18 18.0299C821.18 18.4899 821.56 18.8699 822.02 18.8699Z" fill="#474747"/>
</g>
<g style="mix-blend-mode:overlay">
<path d="M830.02 18.9498C830.53 18.9498 830.95 18.5298 830.95 18.0198C830.95 17.5098 830.53 17.0898 830.02 17.0898C829.51 17.0898 829.09 17.5098 829.09 18.0198C829.09 18.5298 829.51 18.9498 830.02 18.9498Z" fill="#474747"/>
</g>
<g style="mix-blend-mode:overlay">
<path d="M838.02 19.04C838.58 19.04 839.04 18.58 839.04 18.02C839.04 17.46 838.58 17 838.02 17C837.46 17 837 17.46 837 18.02C837 18.58 837.46 19.04 838.02 19.04Z" fill="#474747"/>
</g>
<g style="mix-blend-mode:overlay">
<path d="M846.02 19.1301C846.63 19.1301 847.13 18.6301 847.13 18.0201C847.13 17.4101 846.63 16.9102 846.02 16.9102C845.41 16.9102 844.91 17.4101 844.91 18.0201C844.91 18.6301 845.41 19.1301 846.02 19.1301Z" fill="#474747"/>
</g>
<g style="mix-blend-mode:overlay">
<path d="M854.02 19.1998C854.67 19.1998 855.2 18.6698 855.2 18.0198C855.2 17.3698 854.67 16.8398 854.02 16.8398C853.37 16.8398 852.84 17.3698 852.84 18.0198C852.84 18.6698 853.37 19.1998 854.02 19.1998Z" fill="#474747"/>
</g>
<g style="mix-blend-mode:overlay">
<path d="M862.02 19.2598C862.71 19.2598 863.26 18.6998 863.26 18.0198C863.26 17.3398 862.7 16.7798 862.02 16.7798C861.34 16.7798 860.78 17.3398 860.78 18.0198C860.78 18.6998 861.34 19.2598 862.02 19.2598Z" fill="#474747"/>
</g>
<g style="mix-blend-mode:overlay">
<path d="M870.02 19.33C870.74 19.33 871.33 18.74 871.33 18.02C871.33 17.3 870.74 16.71 870.02 16.71C869.3 16.71 868.71 17.3 868.71 18.02C868.71 18.74 869.3 19.33 870.02 19.33Z" fill="#474747"/>
</g>
<g style="mix-blend-mode:overlay">
<path d="M878.02 19.3802C878.77 19.3802 879.37 18.7702 879.37 18.0302C879.37 17.2902 878.76 16.6802 878.02 16.6802C877.28 16.6802 876.67 17.2902 876.67 18.0302C876.67 18.7702 877.28 19.3802 878.02 19.3802Z" fill="#474747"/>
</g>
<g style="mix-blend-mode:overlay">
<path d="M886.02 19.4201C886.79 19.4201 887.42 18.7901 887.42 18.0201C887.42 17.2501 886.79 16.6201 886.02 16.6201C885.25 16.6201 884.62 17.2501 884.62 18.0201C884.62 18.7901 885.25 19.4201 886.02 19.4201Z" fill="#474747"/>
</g>
<g style="mix-blend-mode:overlay">
<path d="M894.02 19.4601C894.82 19.4601 895.46 18.8101 895.46 18.0201C895.46 17.2301 894.81 16.5801 894.02 16.5801C893.23 16.5801 892.58 17.2301 892.58 18.0201C892.58 18.8101 893.23 19.4601 894.02 19.4601Z" fill="#474747"/>
</g>
<g style="mix-blend-mode:overlay">
<path d="M902.02 19.4898C902.83 19.4898 903.48 18.8298 903.48 18.0298C903.48 17.2298 902.82 16.5698 902.02 16.5698C901.22 16.5698 900.56 17.2298 900.56 18.0298C900.56 18.8298 901.22 19.4898 902.02 19.4898Z" fill="#474747"/>
</g>
<g style="mix-blend-mode:overlay">
<path d="M910.02 19.5098C910.84 19.5098 911.51 18.8398 911.51 18.0198C911.51 17.1998 910.84 16.5298 910.02 16.5298C909.2 16.5298 908.53 17.1998 908.53 18.0198C908.53 18.8398 909.2 19.5098 910.02 19.5098Z" fill="#474747"/>
</g>
<g style="mix-blend-mode:overlay">
<path d="M918.02 19.5098C918.84 19.5098 919.51 18.8398 919.51 18.0198C919.51 17.1998 918.84 16.5298 918.02 16.5298C917.2 16.5298 916.53 17.1998 916.53 18.0198C916.53 18.8398 917.2 19.5098 918.02 19.5098Z" fill="#474747"/>
</g>
<g style="mix-blend-mode:overlay">
<path d="M926.02 19.5098C926.84 19.5098 927.51 18.8398 927.51 18.0198C927.51 17.1998 926.84 16.5298 926.02 16.5298C925.2 16.5298 924.53 17.1998 924.53 18.0198C924.53 18.8398 925.2 19.5098 926.02 19.5098Z" fill="#474747"/>
</g>
<g style="mix-blend-mode:overlay">
<path d="M934.02 19.4898C934.83 19.4898 935.48 18.8298 935.48 18.0298C935.48 17.2298 934.82 16.5698 934.02 16.5698C933.22 16.5698 932.56 17.2298 932.56 18.0298C932.56 18.8298 933.22 19.4898 934.02 19.4898Z" fill="#474747"/>
</g>
<g style="mix-blend-mode:overlay">
<path d="M942.02 19.4601C942.82 19.4601 943.46 18.8101 943.46 18.0201C943.46 17.2301 942.81 16.5801 942.02 16.5801C941.23 16.5801 940.58 17.2301 940.58 18.0201C940.58 18.8101 941.23 19.4601 942.02 19.4601Z" fill="#474747"/>
</g>
<g style="mix-blend-mode:overlay">
<path d="M950.02 19.4201C950.79 19.4201 951.42 18.7901 951.42 18.0201C951.42 17.2501 950.79 16.6201 950.02 16.6201C949.25 16.6201 948.62 17.2501 948.62 18.0201C948.62 18.7901 949.25 19.4201 950.02 19.4201Z" fill="#474747"/>
</g>
<g style="mix-blend-mode:overlay">
<path d="M958.02 19.3802C958.77 19.3802 959.37 18.7702 959.37 18.0302C959.37 17.2902 958.76 16.6802 958.02 16.6802C957.28 16.6802 956.67 17.2902 956.67 18.0302C956.67 18.7702 957.28 19.3802 958.02 19.3802Z" fill="#474747"/>
</g>
<g style="mix-blend-mode:overlay">
<path d="M966.02 19.33C966.74 19.33 967.33 18.74 967.33 18.02C967.33 17.3 966.74 16.71 966.02 16.71C965.3 16.71 964.71 17.3 964.71 18.02C964.71 18.74 965.3 19.33 966.02 19.33Z" fill="#474747"/>
</g>
<g style="mix-blend-mode:overlay">
<path d="M974.02 19.2598C974.71 19.2598 975.26 18.6998 975.26 18.0198C975.26 17.3398 974.7 16.7798 974.02 16.7798C973.34 16.7798 972.78 17.3398 972.78 18.0198C972.78 18.6998 973.34 19.2598 974.02 19.2598Z" fill="#474747"/>
</g>
<g style="mix-blend-mode:overlay">
<path d="M982.02 19.1998C982.67 19.1998 983.2 18.6698 983.2 18.0198C983.2 17.3698 982.67 16.8398 982.02 16.8398C981.37 16.8398 980.84 17.3698 980.84 18.0198C980.84 18.6698 981.37 19.1998 982.02 19.1998Z" fill="#474747"/>
</g>
<g style="mix-blend-mode:overlay">
<path d="M990.02 19.1301C990.63 19.1301 991.13 18.6301 991.13 18.0201C991.13 17.4101 990.63 16.9102 990.02 16.9102C989.41 16.9102 988.91 17.4101 988.91 18.0201C988.91 18.6301 989.41 19.1301 990.02 19.1301Z" fill="#474747"/>
</g>
<g style="mix-blend-mode:overlay">
<path d="M998.02 19.04C998.58 19.04 999.04 18.58 999.04 18.02C999.04 17.46 998.58 17 998.02 17C997.46 17 997 17.46 997 18.02C997 18.58 997.46 19.04 998.02 19.04Z" fill="#474747"/>
</g>
<g style="mix-blend-mode:overlay">
<path d="M1006.02 18.9498C1006.53 18.9498 1006.95 18.5298 1006.95 18.0198C1006.95 17.5098 1006.53 17.0898 1006.02 17.0898C1005.51 17.0898 1005.09 17.5098 1005.09 18.0198C1005.09 18.5298 1005.51 18.9498 1006.02 18.9498Z" fill="#474747"/>
</g>
<g style="mix-blend-mode:overlay">
<path d="M1014.02 18.8699C1014.49 18.8699 1014.86 18.4899 1014.86 18.0299C1014.86 17.5699 1014.48 17.1899 1014.02 17.1899C1013.56 17.1899 1013.18 17.5699 1013.18 18.0299C1013.18 18.4899 1013.56 18.8699 1014.02 18.8699Z" fill="#474747"/>
</g>
<g style="mix-blend-mode:overlay">
<path d="M1022.02 18.7798C1022.44 18.7798 1022.77 18.4398 1022.77 18.0298C1022.77 17.6198 1022.43 17.2798 1022.02 17.2798C1021.61 17.2798 1021.27 17.6198 1021.27 18.0298C1021.27 18.4398 1021.61 18.7798 1022.02 18.7798Z" fill="#474747"/>
</g>
<g style="mix-blend-mode:overlay">
<path d="M1030.02 18.6901C1030.39 18.6901 1030.69 18.3901 1030.69 18.0201C1030.69 17.6501 1030.39 17.3501 1030.02 17.3501C1029.65 17.3501 1029.35 17.6501 1029.35 18.0201C1029.35 18.3901 1029.65 18.6901 1030.02 18.6901Z" fill="#474747"/>
</g>
<g style="mix-blend-mode:overlay">
<path d="M1038.02 18.58C1038.33 18.58 1038.57 18.33 1038.57 18.03C1038.57 17.73 1038.32 17.48 1038.02 17.48C1037.72 17.48 1037.47 17.73 1037.47 18.03C1037.47 18.33 1037.72 18.58 1038.02 18.58Z" fill="#474747"/>
</g>
<g style="mix-blend-mode:overlay">
<path d="M1046.02 18.4898C1046.28 18.4898 1046.49 18.2798 1046.49 18.0198C1046.49 17.7598 1046.28 17.5498 1046.02 17.5498C1045.76 17.5498 1045.55 17.7598 1045.55 18.0198C1045.55 18.2798 1045.76 18.4898 1046.02 18.4898Z" fill="#474747"/>
</g>
<g style="mix-blend-mode:overlay">
<path d="M758.02 26.1102C758.02 26.1102 758.11 26.0702 758.11 26.0202C758.11 25.9702 758.07 25.9302 758.02 25.9302C757.97 25.9302 757.93 25.9702 757.93 26.0202C757.93 26.0702 757.97 26.1102 758.02 26.1102Z" fill="#474747"/>
</g>
<g style="mix-blend-mode:overlay">
<path d="M766.02 26.2198C766.13 26.2198 766.22 26.1298 766.22 26.0198C766.22 25.9098 766.13 25.8198 766.02 25.8198C765.91 25.8198 765.82 25.9098 765.82 26.0198C765.82 26.1298 765.91 26.2198 766.02 26.2198Z" fill="#474747"/>
</g>
<g style="mix-blend-mode:overlay">
<path d="M774.02 26.33C774.19 26.33 774.33 26.19 774.33 26.02C774.33 25.85 774.19 25.71 774.02 25.71C773.85 25.71 773.71 25.85 773.71 26.02C773.71 26.19 773.85 26.33 774.02 26.33Z" fill="#474747"/>
</g>
<g style="mix-blend-mode:overlay">
<path d="M782.02 26.4401C782.25 26.4401 782.44 26.2501 782.44 26.0201C782.44 25.7901 782.25 25.6001 782.02 25.6001C781.79 25.6001 781.6 25.7901 781.6 26.0201C781.6 26.2501 781.79 26.4401 782.02 26.4401Z" fill="#474747"/>
</g>
<g style="mix-blend-mode:overlay">
<path d="M790.02 26.5298C790.3 26.5298 790.53 26.2998 790.53 26.0198C790.53 25.7398 790.3 25.5098 790.02 25.5098C789.74 25.5098 789.51 25.7398 789.51 26.0198C789.51 26.2998 789.74 26.5298 790.02 26.5298Z" fill="#474747"/>
</g>
<g style="mix-blend-mode:overlay">
<path d="M798.02 26.6399C798.36 26.6399 798.64 26.3599 798.64 26.0199C798.64 25.6799 798.36 25.3999 798.02 25.3999C797.68 25.3999 797.4 25.6799 797.4 26.0199C797.4 26.3599 797.68 26.6399 798.02 26.6399Z" fill="#474747"/>
</g>
<g style="mix-blend-mode:overlay">
<path d="M806.02 26.7301C806.41 26.7301 806.73 26.4101 806.73 26.0201C806.73 25.6301 806.41 25.3101 806.02 25.3101C805.63 25.3101 805.31 25.6301 805.31 26.0201C805.31 26.4101 805.63 26.7301 806.02 26.7301Z" fill="#474747"/>
</g>
<g style="mix-blend-mode:overlay">
<path d="M814.02 26.8402C814.47 26.8402 814.84 26.4702 814.84 26.0202C814.84 25.5702 814.47 25.2002 814.02 25.2002C813.57 25.2002 813.2 25.5702 813.2 26.0202C813.2 26.4702 813.57 26.8402 814.02 26.8402Z" fill="#474747"/>
</g>
<g style="mix-blend-mode:overlay">
<path d="M822.02 26.9299C822.52 26.9299 822.93 26.5199 822.93 26.0199C822.93 25.5199 822.52 25.1099 822.02 25.1099C821.52 25.1099 821.11 25.5199 821.11 26.0199C821.11 26.5199 821.52 26.9299 822.02 26.9299Z" fill="#474747"/>
</g>
<g style="mix-blend-mode:overlay">
<path d="M830.02 27.04C830.58 27.04 831.04 26.58 831.04 26.02C831.04 25.46 830.58 25 830.02 25C829.46 25 829 25.46 829 26.02C829 26.58 829.46 27.04 830.02 27.04Z" fill="#474747"/>
</g>
<g style="mix-blend-mode:overlay">
<path d="M838.02 27.1301C838.63 27.1301 839.13 26.6301 839.13 26.0201C839.13 25.4101 838.63 24.9102 838.02 24.9102C837.41 24.9102 836.91 25.4101 836.91 26.0201C836.91 26.6301 837.41 27.1301 838.02 27.1301Z" fill="#474747"/>
</g>
<g style="mix-blend-mode:overlay">
<path d="M846.02 27.2198C846.68 27.2198 847.22 26.6798 847.22 26.0198C847.22 25.3598 846.68 24.8198 846.02 24.8198C845.36 24.8198 844.82 25.3598 844.82 26.0198C844.82 26.6798 845.36 27.2198 846.02 27.2198Z" fill="#474747"/>
</g>
<g style="mix-blend-mode:overlay">
<path d="M854.02 27.29C854.72 27.29 855.28 26.72 855.28 26.03C855.28 25.34 854.71 24.77 854.02 24.77C853.33 24.77 852.76 25.34 852.76 26.03C852.76 26.72 853.33 27.29 854.02 27.29Z" fill="#474747"/>
</g>
<g style="mix-blend-mode:overlay">
<path d="M862.02 27.3802C862.77 27.3802 863.37 26.7702 863.37 26.0302C863.37 25.2902 862.76 24.6802 862.02 24.6802C861.28 24.6802 860.67 25.2902 860.67 26.0302C860.67 26.7702 861.28 27.3802 862.02 27.3802Z" fill="#474747"/>
</g>
<g style="mix-blend-mode:overlay">
<path d="M870.02 27.4401C870.8 27.4401 871.44 26.8001 871.44 26.0201C871.44 25.2401 870.8 24.6001 870.02 24.6001C869.24 24.6001 868.6 25.2401 868.6 26.0201C868.6 26.8001 869.24 27.4401 870.02 27.4401Z" fill="#474747"/>
</g>
<g style="mix-blend-mode:overlay">
<path d="M878.02 27.4898C878.83 27.4898 879.48 26.8298 879.48 26.0298C879.48 25.2298 878.82 24.5698 878.02 24.5698C877.22 24.5698 876.56 25.2298 876.56 26.0298C876.56 26.8298 877.22 27.4898 878.02 27.4898Z" fill="#474747"/>
</g>
<g style="mix-blend-mode:overlay">
<path d="M886.02 27.5298C886.85 27.5298 887.53 26.8498 887.53 26.0198C887.53 25.1898 886.85 24.5098 886.02 24.5098C885.19 24.5098 884.51 25.1898 884.51 26.0198C884.51 26.8498 885.19 27.5298 886.02 27.5298Z" fill="#474747"/>
</g>
<g style="mix-blend-mode:overlay">
<path d="M894.02 27.58C894.88 27.58 895.57 26.88 895.57 26.03C895.57 25.18 894.87 24.48 894.02 24.48C893.17 24.48 892.47 25.18 892.47 26.03C892.47 26.88 893.17 27.58 894.02 27.58Z" fill="#474747"/>
</g>
<g style="mix-blend-mode:overlay">
<path d="M902.02 27.6199C902.9 27.6199 903.62 26.8999 903.62 26.0199C903.62 25.1399 902.9 24.4199 902.02 24.4199C901.14 24.4199 900.42 25.1399 900.42 26.0199C900.42 26.8999 901.14 27.6199 902.02 27.6199Z" fill="#474747"/>
</g>
<g style="mix-blend-mode:overlay">
<path d="M910.02 27.6199C910.9 27.6199 911.62 26.8999 911.62 26.0199C911.62 25.1399 910.9 24.4199 910.02 24.4199C909.14 24.4199 908.42 25.1399 908.42 26.0199C908.42 26.8999 909.14 27.6199 910.02 27.6199Z" fill="#474747"/>
</g>
<g style="mix-blend-mode:overlay">
<path d="M918.02 27.6399C918.91 27.6399 919.64 26.9099 919.64 26.0199C919.64 25.1299 918.92 24.3999 918.02 24.3999C917.12 24.3999 916.4 25.1299 916.4 26.0199C916.4 26.9099 917.13 27.6399 918.02 27.6399Z" fill="#474747"/>
</g>
<g style="mix-blend-mode:overlay">
<path d="M926.02 27.6399C926.91 27.6399 927.64 26.9099 927.64 26.0199C927.64 25.1299 926.92 24.3999 926.02 24.3999C925.12 24.3999 924.4 25.1299 924.4 26.0199C924.4 26.9099 925.13 27.6399 926.02 27.6399Z" fill="#474747"/>
</g>
<g style="mix-blend-mode:overlay">
<path d="M934.02 27.6199C934.9 27.6199 935.62 26.8999 935.62 26.0199C935.62 25.1399 934.9 24.4199 934.02 24.4199C933.14 24.4199 932.42 25.1399 932.42 26.0199C932.42 26.8999 933.14 27.6199 934.02 27.6199Z" fill="#474747"/>
</g>
<g style="mix-blend-mode:overlay">
<path d="M942.02 27.58C942.88 27.58 943.57 26.88 943.57 26.03C943.57 25.18 942.87 24.48 942.02 24.48C941.17 24.48 940.47 25.18 940.47 26.03C940.47 26.88 941.17 27.58 942.02 27.58Z" fill="#474747"/>
</g>
<g style="mix-blend-mode:overlay">
<path d="M950.02 27.5502C950.87 27.5502 951.55 26.8602 951.55 26.0202C951.55 25.1802 950.86 24.4902 950.02 24.4902C949.18 24.4902 948.49 25.1802 948.49 26.0202C948.49 26.8602 949.18 27.5502 950.02 27.5502Z" fill="#474747"/>
</g>
<g style="mix-blend-mode:overlay">
<path d="M958.02 27.4898C958.83 27.4898 959.48 26.8298 959.48 26.0298C959.48 25.2298 958.82 24.5698 958.02 24.5698C957.22 24.5698 956.56 25.2298 956.56 26.0298C956.56 26.8298 957.22 27.4898 958.02 27.4898Z" fill="#474747"/>
</g>
<g style="mix-blend-mode:overlay">
<path d="M966.02 27.4401C966.8 27.4401 967.44 26.8001 967.44 26.0201C967.44 25.2401 966.8 24.6001 966.02 24.6001C965.24 24.6001 964.6 25.2401 964.6 26.0201C964.6 26.8001 965.24 27.4401 966.02 27.4401Z" fill="#474747"/>
</g>
<g style="mix-blend-mode:overlay">
<path d="M974.02 27.3802C974.77 27.3802 975.37 26.7702 975.37 26.0302C975.37 25.2902 974.76 24.6802 974.02 24.6802C973.28 24.6802 972.67 25.2902 972.67 26.0302C972.67 26.7702 973.28 27.3802 974.02 27.3802Z" fill="#474747"/>
</g>
<g style="mix-blend-mode:overlay">
<path d="M982.02 27.31C982.73 27.31 983.31 26.73 983.31 26.02C983.31 25.31 982.73 24.73 982.02 24.73C981.31 24.73 980.73 25.31 980.73 26.02C980.73 26.73 981.31 27.31 982.02 27.31Z" fill="#474747"/>
</g>
<g style="mix-blend-mode:overlay">
<path d="M990.02 27.2198C990.68 27.2198 991.22 26.6798 991.22 26.0198C991.22 25.3598 990.68 24.8198 990.02 24.8198C989.36 24.8198 988.82 25.3598 988.82 26.0198C988.82 26.6798 989.36 27.2198 990.02 27.2198Z" fill="#474747"/>
</g>
<g style="mix-blend-mode:overlay">
<path d="M998.02 27.1301C998.63 27.1301 999.13 26.6301 999.13 26.0201C999.13 25.4101 998.63 24.9102 998.02 24.9102C997.41 24.9102 996.91 25.4101 996.91 26.0201C996.91 26.6301 997.41 27.1301 998.02 27.1301Z" fill="#474747"/>
</g>
<g style="mix-blend-mode:overlay">
<path d="M1006.02 27.04C1006.58 27.04 1007.04 26.58 1007.04 26.02C1007.04 25.46 1006.58 25 1006.02 25C1005.46 25 1005 25.46 1005 26.02C1005 26.58 1005.46 27.04 1006.02 27.04Z" fill="#474747"/>
</g>
<g style="mix-blend-mode:overlay">
<path d="M1014.02 26.9498C1014.53 26.9498 1014.95 26.5298 1014.95 26.0198C1014.95 25.5098 1014.53 25.0898 1014.02 25.0898C1013.51 25.0898 1013.09 25.5098 1013.09 26.0198C1013.09 26.5298 1013.51 26.9498 1014.02 26.9498Z" fill="#474747"/>
</g>
<g style="mix-blend-mode:overlay">
<path d="M1022.02 26.8402C1022.47 26.8402 1022.84 26.4702 1022.84 26.0202C1022.84 25.5702 1022.47 25.2002 1022.02 25.2002C1021.57 25.2002 1021.2 25.5702 1021.2 26.0202C1021.2 26.4702 1021.57 26.8402 1022.02 26.8402Z" fill="#474747"/>
</g>
<g style="mix-blend-mode:overlay">
<path d="M1030.02 26.75C1030.42 26.75 1030.75 26.42 1030.75 26.02C1030.75 25.62 1030.42 25.29 1030.02 25.29C1029.62 25.29 1029.29 25.62 1029.29 26.02C1029.29 26.42 1029.62 26.75 1030.02 26.75Z" fill="#474747"/>
</g>
<g style="mix-blend-mode:overlay">
<path d="M1038.02 26.6399C1038.36 26.6399 1038.64 26.3599 1038.64 26.0199C1038.64 25.6799 1038.36 25.3999 1038.02 25.3999C1037.68 25.3999 1037.4 25.6799 1037.4 26.0199C1037.4 26.3599 1037.68 26.6399 1038.02 26.6399Z" fill="#474747"/>
</g>
<g style="mix-blend-mode:overlay">
<path d="M1046.02 26.5502C1046.31 26.5502 1046.55 26.3102 1046.55 26.0202C1046.55 25.7302 1046.31 25.4902 1046.02 25.4902C1045.73 25.4902 1045.49 25.7302 1045.49 26.0202C1045.49 26.3102 1045.73 26.5502 1046.02 26.5502Z" fill="#474747"/>
</g>
<g style="mix-blend-mode:overlay">
<path d="M750.02 34.0702C750.02 34.0702 750.06 34.0502 750.06 34.0302C750.06 34.0102 750.04 33.9902 750.02 33.9902C750 33.9902 749.98 34.0102 749.98 34.0302C749.98 34.0502 750 34.0702 750.02 34.0702Z" fill="#474747"/>
</g>
<g style="mix-blend-mode:overlay">
<path d="M758.02 34.1599C758.09 34.1599 758.15 34.0999 758.15 34.0299C758.15 33.9599 758.09 33.8999 758.02 33.8999C757.95 33.8999 757.89 33.9599 757.89 34.0299C757.89 34.0999 757.95 34.1599 758.02 34.1599Z" fill="#474747"/>
</g>
<g style="mix-blend-mode:overlay">
<path d="M766.02 34.27C766.15 34.27 766.26 34.16 766.26 34.03C766.26 33.9 766.15 33.79 766.02 33.79C765.89 33.79 765.78 33.9 765.78 34.03C765.78 34.16 765.89 34.27 766.02 34.27Z" fill="#474747"/>
</g>
<g style="mix-blend-mode:overlay">
<path d="M774.02 34.3802C774.22 34.3802 774.37 34.2202 774.37 34.0302C774.37 33.8402 774.21 33.6802 774.02 33.6802C773.83 33.6802 773.67 33.8402 773.67 34.0302C773.67 34.2202 773.83 34.3802 774.02 34.3802Z" fill="#474747"/>
</g>
<g style="mix-blend-mode:overlay">
<path d="M782.02 34.4898C782.28 34.4898 782.49 34.2798 782.49 34.0198C782.49 33.7598 782.28 33.5498 782.02 33.5498C781.76 33.5498 781.55 33.7598 781.55 34.0198C781.55 34.2798 781.76 34.4898 782.02 34.4898Z" fill="#474747"/>
</g>
<g style="mix-blend-mode:overlay">
<path d="M790.02 34.5999C790.34 34.5999 790.6 34.3399 790.6 34.0199C790.6 33.6999 790.34 33.4399 790.02 33.4399C789.7 33.4399 789.44 33.6999 789.44 34.0199C789.44 34.3399 789.7 34.5999 790.02 34.5999Z" fill="#474747"/>
</g>
<g style="mix-blend-mode:overlay">
<path d="M798.02 34.7101C798.4 34.7101 798.71 34.4001 798.71 34.0201C798.71 33.6401 798.4 33.3301 798.02 33.3301C797.64 33.3301 797.33 33.6401 797.33 34.0201C797.33 34.4001 797.64 34.7101 798.02 34.7101Z" fill="#474747"/>
</g>
<g style="mix-blend-mode:overlay">
<path d="M806.02 34.8202C806.46 34.8202 806.82 34.4602 806.82 34.0202C806.82 33.5802 806.46 33.2202 806.02 33.2202C805.58 33.2202 805.22 33.5802 805.22 34.0202C805.22 34.4602 805.58 34.8202 806.02 34.8202Z" fill="#474747"/>
</g>
<g style="mix-blend-mode:overlay">
<path d="M814.02 34.9099C814.51 34.9099 814.91 34.5099 814.91 34.0199C814.91 33.5299 814.51 33.1299 814.02 33.1299C813.53 33.1299 813.13 33.5299 813.13 34.0199C813.13 34.5099 813.53 34.9099 814.02 34.9099Z" fill="#474747"/>
</g>
<g style="mix-blend-mode:overlay">
<path d="M822.02 35.02C822.57 35.02 823.02 34.57 823.02 34.02C823.02 33.47 822.57 33.02 822.02 33.02C821.47 33.02 821.02 33.47 821.02 34.02C821.02 34.57 821.47 35.02 822.02 35.02Z" fill="#474747"/>
</g>
<g style="mix-blend-mode:overlay">
<path d="M830.02 35.1301C830.63 35.1301 831.13 34.6301 831.13 34.0201C831.13 33.4101 830.63 32.9102 830.02 32.9102C829.41 32.9102 828.91 33.4101 828.91 34.0201C828.91 34.6301 829.41 35.1301 830.02 35.1301Z" fill="#474747"/>
</g>
<g style="mix-blend-mode:overlay">
<path d="M838.02 35.2198C838.68 35.2198 839.22 34.6798 839.22 34.0198C839.22 33.3598 838.68 32.8198 838.02 32.8198C837.36 32.8198 836.82 33.3598 836.82 34.0198C836.82 34.6798 837.36 35.2198 838.02 35.2198Z" fill="#474747"/>
</g>
<g style="mix-blend-mode:overlay">
<path d="M846.02 35.31C846.73 35.31 847.31 34.73 847.31 34.02C847.31 33.31 846.73 32.73 846.02 32.73C845.31 32.73 844.73 33.31 844.73 34.02C844.73 34.73 845.31 35.31 846.02 35.31Z" fill="#474747"/>
</g>
<g style="mix-blend-mode:overlay">
<path d="M854.02 35.4001C854.78 35.4001 855.4 34.7801 855.4 34.0201C855.4 33.2601 854.78 32.6401 854.02 32.6401C853.26 32.6401 852.64 33.2601 852.64 34.0201C852.64 34.7801 853.26 35.4001 854.02 35.4001Z" fill="#474747"/>
</g>
<g style="mix-blend-mode:overlay">
<path d="M862.02 35.4601C862.82 35.4601 863.46 34.8101 863.46 34.0201C863.46 33.2301 862.81 32.5801 862.02 32.5801C861.23 32.5801 860.58 33.2301 860.58 34.0201C860.58 34.8101 861.23 35.4601 862.02 35.4601Z" fill="#474747"/>
</g>
<g style="mix-blend-mode:overlay">
<path d="M870.02 35.5298C870.85 35.5298 871.53 34.8498 871.53 34.0198C871.53 33.1898 870.85 32.5098 870.02 32.5098C869.19 32.5098 868.51 33.1898 868.51 34.0198C868.51 34.8498 869.19 35.5298 870.02 35.5298Z" fill="#474747"/>
</g>
<g style="mix-blend-mode:overlay">
<path d="M878.02 35.5999C878.89 35.5999 879.6 34.8899 879.6 34.0199C879.6 33.1499 878.89 32.4399 878.02 32.4399C877.15 32.4399 876.45 33.1499 876.45 34.0199C876.45 34.8899 877.16 35.5999 878.02 35.5999Z" fill="#474747"/>
</g>
<g style="mix-blend-mode:overlay">
<path d="M886.02 35.6599C886.93 35.6599 887.66 34.9299 887.66 34.0199C887.66 33.1099 886.92 32.3799 886.02 32.3799C885.12 32.3799 884.38 33.1099 884.38 34.0199C884.38 34.9299 885.11 35.6599 886.02 35.6599Z" fill="#474747"/>
</g>
<g style="mix-blend-mode:overlay">
<path d="M894.02 35.6901C894.94 35.6901 895.68 34.9501 895.68 34.0301C895.68 33.1101 894.94 32.3701 894.02 32.3701C893.1 32.3701 892.36 33.1101 892.36 34.0301C892.36 34.9501 893.1 35.6901 894.02 35.6901Z" fill="#474747"/>
</g>
<g style="mix-blend-mode:overlay">
<path d="M902.02 35.7301C902.96 35.7301 903.73 34.9701 903.73 34.0201C903.73 33.0701 902.97 32.3101 902.02 32.3101C901.07 32.3101 900.31 33.0701 900.31 34.0201C900.31 34.9701 901.07 35.7301 902.02 35.7301Z" fill="#474747"/>
</g>
<g style="mix-blend-mode:overlay">
<path d="M910.02 35.75C910.98 35.75 911.75 34.98 911.75 34.02C911.75 33.06 910.98 32.29 910.02 32.29C909.06 32.29 908.29 33.06 908.29 34.02C908.29 34.98 909.06 35.75 910.02 35.75Z" fill="#474747"/>
</g>
<g style="mix-blend-mode:overlay">
<path d="M918.02 35.75C918.98 35.75 919.75 34.98 919.75 34.02C919.75 33.06 918.98 32.29 918.02 32.29C917.06 32.29 916.29 33.06 916.29 34.02C916.29 34.98 917.06 35.75 918.02 35.75Z" fill="#474747"/>
</g>
<g style="mix-blend-mode:overlay">
<path d="M926.02 35.75C926.98 35.75 927.75 34.98 927.75 34.02C927.75 33.06 926.98 32.29 926.02 32.29C925.06 32.29 924.29 33.06 924.29 34.02C924.29 34.98 925.06 35.75 926.02 35.75Z" fill="#474747"/>
</g>
<g style="mix-blend-mode:overlay">
<path d="M934.02 35.7301C934.96 35.7301 935.73 34.9701 935.73 34.0201C935.73 33.0701 934.97 32.3101 934.02 32.3101C933.07 32.3101 932.31 33.0701 932.31 34.0201C932.31 34.9701 933.07 35.7301 934.02 35.7301Z" fill="#474747"/>
</g>
<g style="mix-blend-mode:overlay">
<path d="M942.02 35.7101C942.95 35.7101 943.71 34.9601 943.71 34.0201C943.71 33.0801 942.96 32.3301 942.02 32.3301C941.08 32.3301 940.33 33.0801 940.33 34.0201C940.33 34.9601 941.08 35.7101 942.02 35.7101Z" fill="#474747"/>
</g>
<g style="mix-blend-mode:overlay">
<path d="M950.02 35.6599C950.93 35.6599 951.66 34.9299 951.66 34.0199C951.66 33.1099 950.92 32.3799 950.02 32.3799C949.12 32.3799 948.38 33.1099 948.38 34.0199C948.38 34.9299 949.11 35.6599 950.02 35.6599Z" fill="#474747"/>
</g>
<g style="mix-blend-mode:overlay">
<path d="M958.02 35.5999C958.89 35.5999 959.6 34.8899 959.6 34.0199C959.6 33.1499 958.89 32.4399 958.02 32.4399C957.15 32.4399 956.45 33.1499 956.45 34.0199C956.45 34.8899 957.16 35.5999 958.02 35.5999Z" fill="#474747"/>
</g>
<g style="mix-blend-mode:overlay">
<path d="M966.02 35.5298C966.85 35.5298 967.53 34.8498 967.53 34.0198C967.53 33.1898 966.85 32.5098 966.02 32.5098C965.19 32.5098 964.51 33.1898 964.51 34.0198C964.51 34.8498 965.19 35.5298 966.02 35.5298Z" fill="#474747"/>
</g>
<g style="mix-blend-mode:overlay">
<path d="M974.02 35.4601C974.82 35.4601 975.46 34.8101 975.46 34.0201C975.46 33.2301 974.81 32.5801 974.02 32.5801C973.23 32.5801 972.58 33.2301 972.58 34.0201C972.58 34.8101 973.23 35.4601 974.02 35.4601Z" fill="#474747"/>
</g>
<g style="mix-blend-mode:overlay">
<path d="M982.02 35.4001C982.78 35.4001 983.4 34.7801 983.4 34.0201C983.4 33.2601 982.78 32.6401 982.02 32.6401C981.26 32.6401 980.64 33.2601 980.64 34.0201C980.64 34.7801 981.26 35.4001 982.02 35.4001Z" fill="#474747"/>
</g>
<g style="mix-blend-mode:overlay">
<path d="M990.02 35.31C990.73 35.31 991.31 34.73 991.31 34.02C991.31 33.31 990.73 32.73 990.02 32.73C989.31 32.73 988.73 33.31 988.73 34.02C988.73 34.73 989.31 35.31 990.02 35.31Z" fill="#474747"/>
</g>
<g style="mix-blend-mode:overlay">
<path d="M998.02 35.2198C998.68 35.2198 999.22 34.6798 999.22 34.0198C999.22 33.3598 998.68 32.8198 998.02 32.8198C997.36 32.8198 996.82 33.3598 996.82 34.0198C996.82 34.6798 997.36 35.2198 998.02 35.2198Z" fill="#474747"/>
</g>
<g style="mix-blend-mode:overlay">
<path d="M1006.02 35.1301C1006.63 35.1301 1007.13 34.6301 1007.13 34.0201C1007.13 33.4101 1006.63 32.9102 1006.02 32.9102C1005.41 32.9102 1004.91 33.4101 1004.91 34.0201C1004.91 34.6301 1005.41 35.1301 1006.02 35.1301Z" fill="#474747"/>
</g>
<g style="mix-blend-mode:overlay">
<path d="M1014.02 35.04C1014.58 35.04 1015.04 34.58 1015.04 34.02C1015.04 33.46 1014.58 33 1014.02 33C1013.46 33 1013 33.46 1013 34.02C1013 34.58 1013.46 35.04 1014.02 35.04Z" fill="#474747"/>
</g>
<g style="mix-blend-mode:overlay">
<path d="M1022.02 34.9299C1022.52 34.9299 1022.93 34.5199 1022.93 34.0199C1022.93 33.5199 1022.52 33.1099 1022.02 33.1099C1021.52 33.1099 1021.11 33.5199 1021.11 34.0199C1021.11 34.5199 1021.52 34.9299 1022.02 34.9299Z" fill="#474747"/>
</g>
<g style="mix-blend-mode:overlay">
<path d="M1030.02 34.8202C1030.46 34.8202 1030.82 34.4602 1030.82 34.0202C1030.82 33.5802 1030.46 33.2202 1030.02 33.2202C1029.58 33.2202 1029.22 33.5802 1029.22 34.0202C1029.22 34.4602 1029.58 34.8202 1030.02 34.8202Z" fill="#474747"/>
</g>
<g style="mix-blend-mode:overlay">
<path d="M1038.02 34.7101C1038.4 34.7101 1038.71 34.4001 1038.71 34.0201C1038.71 33.6401 1038.4 33.3301 1038.02 33.3301C1037.64 33.3301 1037.33 33.6401 1037.33 34.0201C1037.33 34.4001 1037.64 34.7101 1038.02 34.7101Z" fill="#474747"/>
</g>
<g style="mix-blend-mode:overlay">
<path d="M1046.02 34.6199C1046.35 34.6199 1046.62 34.3499 1046.62 34.0199C1046.62 33.6899 1046.35 33.4199 1046.02 33.4199C1045.69 33.4199 1045.42 33.6899 1045.42 34.0199C1045.42 34.3499 1045.69 34.6199 1046.02 34.6199Z" fill="#474747"/>
</g>
<g style="mix-blend-mode:overlay">
<path d="M750.02 42.0902C750.02 42.0902 750.09 42.0602 750.09 42.0202C750.09 41.9802 750.06 41.9502 750.02 41.9502C749.98 41.9502 749.95 41.9802 749.95 42.0202C749.95 42.0602 749.98 42.0902 750.02 42.0902Z" fill="#474747"/>
</g>
<g style="mix-blend-mode:overlay">
<path d="M758.02 42.2198C758.13 42.2198 758.22 42.1298 758.22 42.0198C758.22 41.9098 758.13 41.8198 758.02 41.8198C757.91 41.8198 757.82 41.9098 757.82 42.0198C757.82 42.1298 757.91 42.2198 758.02 42.2198Z" fill="#474747"/>
</g>
<g style="mix-blend-mode:overlay">
<path d="M766.02 42.33C766.19 42.33 766.33 42.19 766.33 42.02C766.33 41.85 766.19 41.71 766.02 41.71C765.85 41.71 765.71 41.85 765.71 42.02C765.71 42.19 765.85 42.33 766.02 42.33Z" fill="#474747"/>
</g>
<g style="mix-blend-mode:overlay">
<path d="M774.02 42.4401C774.25 42.4401 774.44 42.2501 774.44 42.0201C774.44 41.7901 774.25 41.6001 774.02 41.6001C773.79 41.6001 773.6 41.7901 773.6 42.0201C773.6 42.2501 773.79 42.4401 774.02 42.4401Z" fill="#474747"/>
</g>
<g style="mix-blend-mode:overlay">
<path d="M782.02 42.5502C782.31 42.5502 782.55 42.3102 782.55 42.0202C782.55 41.7302 782.31 41.4902 782.02 41.4902C781.73 41.4902 781.49 41.7302 781.49 42.0202C781.49 42.3102 781.73 42.5502 782.02 42.5502Z" fill="#474747"/>
</g>
<g style="mix-blend-mode:overlay">
<path d="M790.02 42.6701C790.38 42.6701 790.66 42.3801 790.66 42.0301C790.66 41.6801 790.37 41.3901 790.02 41.3901C789.67 41.3901 789.38 41.6801 789.38 42.0301C789.38 42.3801 789.67 42.6701 790.02 42.6701Z" fill="#474747"/>
</g>
<g style="mix-blend-mode:overlay">
<path d="M798.02 42.7798C798.44 42.7798 798.77 42.4398 798.77 42.0298C798.77 41.6198 798.43 41.2798 798.02 41.2798C797.61 41.2798 797.27 41.6198 797.27 42.0298C797.27 42.4398 797.61 42.7798 798.02 42.7798Z" fill="#474747"/>
</g>
<g style="mix-blend-mode:overlay">
<path d="M806.02 42.8699C806.49 42.8699 806.86 42.4899 806.86 42.0299C806.86 41.5699 806.48 41.1899 806.02 41.1899C805.56 41.1899 805.18 41.5699 805.18 42.0299C805.18 42.4899 805.56 42.8699 806.02 42.8699Z" fill="#474747"/>
</g>
<g style="mix-blend-mode:overlay">
<path d="M814.02 42.9801C814.55 42.9801 814.97 42.5501 814.97 42.0301C814.97 41.5101 814.54 41.0801 814.02 41.0801C813.5 41.0801 813.07 41.5101 813.07 42.0301C813.07 42.5501 813.5 42.9801 814.02 42.9801Z" fill="#474747"/>
</g>
<g style="mix-blend-mode:overlay">
<path d="M822.02 43.0902C822.61 43.0902 823.08 42.6102 823.08 42.0302C823.08 41.4502 822.6 40.9702 822.02 40.9702C821.44 40.9702 820.96 41.4502 820.96 42.0302C820.96 42.6102 821.44 43.0902 822.02 43.0902Z" fill="#474747"/>
</g>
<g style="mix-blend-mode:overlay">
<path d="M830.02 43.1998C830.67 43.1998 831.2 42.6698 831.2 42.0198C831.2 41.3698 830.67 40.8398 830.02 40.8398C829.37 40.8398 828.84 41.3698 828.84 42.0198C828.84 42.6698 829.37 43.1998 830.02 43.1998Z" fill="#474747"/>
</g>
<g style="mix-blend-mode:overlay">
<path d="M838.02 43.29C838.72 43.29 839.28 42.72 839.28 42.03C839.28 41.34 838.71 40.77 838.02 40.77C837.33 40.77 836.76 41.34 836.76 42.03C836.76 42.72 837.33 43.29 838.02 43.29Z" fill="#474747"/>
</g>
<g style="mix-blend-mode:overlay">
<path d="M846.02 43.4001C846.78 43.4001 847.4 42.7801 847.4 42.0201C847.4 41.2601 846.78 40.6401 846.02 40.6401C845.26 40.6401 844.64 41.2601 844.64 42.0201C844.64 42.7801 845.26 43.4001 846.02 43.4001Z" fill="#474747"/>
</g>
<g style="mix-blend-mode:overlay">
<path d="M854.02 43.4898C854.83 43.4898 855.48 42.8298 855.48 42.0298C855.48 41.2298 854.82 40.5698 854.02 40.5698C853.22 40.5698 852.56 41.2298 852.56 42.0298C852.56 42.8298 853.22 43.4898 854.02 43.4898Z" fill="#474747"/>
</g>
<g style="mix-blend-mode:overlay">
<path d="M862.02 43.5502C862.87 43.5502 863.55 42.8602 863.55 42.0202C863.55 41.1802 862.86 40.4902 862.02 40.4902C861.18 40.4902 860.49 41.1802 860.49 42.0202C860.49 42.8602 861.18 43.5502 862.02 43.5502Z" fill="#474747"/>
</g>
<g style="mix-blend-mode:overlay">
<path d="M870.02 43.6399C870.91 43.6399 871.64 42.9099 871.64 42.0199C871.64 41.1299 870.92 40.3999 870.02 40.3999C869.12 40.3999 868.4 41.1299 868.4 42.0199C868.4 42.9099 869.13 43.6399 870.02 43.6399Z" fill="#474747"/>
</g>
<g style="mix-blend-mode:overlay">
<path d="M878.02 43.7101C878.95 43.7101 879.71 42.9601 879.71 42.0201C879.71 41.0801 878.96 40.3301 878.02 40.3301C877.08 40.3301 876.33 41.0801 876.33 42.0201C876.33 42.9601 877.08 43.7101 878.02 43.7101Z" fill="#474747"/>
</g>
<g style="mix-blend-mode:overlay">
<path d="M886.02 43.75C886.98 43.75 887.75 42.98 887.75 42.02C887.75 41.06 886.98 40.29 886.02 40.29C885.06 40.29 884.29 41.06 884.29 42.02C884.29 42.98 885.06 43.75 886.02 43.75Z" fill="#474747"/>
</g>
<g style="mix-blend-mode:overlay">
<path d="M894.02 43.8202C895.01 43.8202 895.82 43.0202 895.82 42.0202C895.82 41.0202 895.02 40.2202 894.02 40.2202C893.02 40.2202 892.22 41.0202 892.22 42.0202C892.22 43.0202 893.02 43.8202 894.02 43.8202Z" fill="#474747"/>
</g>
<g style="mix-blend-mode:overlay">
<path d="M902.02 43.8402C903.02 43.8402 903.84 43.0302 903.84 42.0202C903.84 41.0102 903.03 40.2002 902.02 40.2002C901.01 40.2002 900.2 41.0102 900.2 42.0202C900.2 43.0302 901.01 43.8402 902.02 43.8402Z" fill="#474747"/>
</g>
<g style="mix-blend-mode:overlay">
<path d="M910.02 43.8602C911.04 43.8602 911.86 43.0402 911.86 42.0202C911.86 41.0002 911.04 40.1802 910.02 40.1802C909 40.1802 908.18 41.0002 908.18 42.0202C908.18 43.0402 909 43.8602 910.02 43.8602Z" fill="#474747"/>
</g>
<g style="mix-blend-mode:overlay">
<path d="M918.02 43.8899C919.05 43.8899 919.88 43.0599 919.88 42.0299C919.88 40.9999 919.05 40.1699 918.02 40.1699C916.99 40.1699 916.16 40.9999 916.16 42.0299C916.16 43.0599 916.99 43.8899 918.02 43.8899Z" fill="#474747"/>
</g>
<g style="mix-blend-mode:overlay">
<path d="M926.02 43.8899C927.05 43.8899 927.88 43.0599 927.88 42.0299C927.88 40.9999 927.05 40.1699 926.02 40.1699C924.99 40.1699 924.16 40.9999 924.16 42.0299C924.16 43.0599 924.99 43.8899 926.02 43.8899Z" fill="#474747"/>
</g>
<g style="mix-blend-mode:overlay">
<path d="M934.02 43.8602C935.04 43.8602 935.86 43.0402 935.86 42.0202C935.86 41.0002 935.04 40.1802 934.02 40.1802C933 40.1802 932.18 41.0002 932.18 42.0202C932.18 43.0402 933 43.8602 934.02 43.8602Z" fill="#474747"/>
</g>
<g style="mix-blend-mode:overlay">
<path d="M942.02 43.8202C943.01 43.8202 943.82 43.0202 943.82 42.0202C943.82 41.0202 943.02 40.2202 942.02 40.2202C941.02 40.2202 940.22 41.0202 940.22 42.0202C940.22 43.0202 941.02 43.8202 942.02 43.8202Z" fill="#474747"/>
</g>
<g style="mix-blend-mode:overlay">
<path d="M950.02 43.77C950.99 43.77 951.77 42.99 951.77 42.02C951.77 41.05 950.99 40.27 950.02 40.27C949.05 40.27 948.27 41.05 948.27 42.02C948.27 42.99 949.05 43.77 950.02 43.77Z" fill="#474747"/>
</g>
<g style="mix-blend-mode:overlay">
<path d="M958.02 43.7101C958.95 43.7101 959.71 42.9601 959.71 42.0201C959.71 41.0801 958.96 40.3301 958.02 40.3301C957.08 40.3301 956.33 41.0801 956.33 42.0201C956.33 42.9601 957.08 43.7101 958.02 43.7101Z" fill="#474747"/>
</g>
<g style="mix-blend-mode:overlay">
<path d="M966.02 43.6399C966.91 43.6399 967.64 42.9099 967.64 42.0199C967.64 41.1299 966.92 40.3999 966.02 40.3999C965.12 40.3999 964.4 41.1299 964.4 42.0199C964.4 42.9099 965.13 43.6399 966.02 43.6399Z" fill="#474747"/>
</g>
<g style="mix-blend-mode:overlay">
<path d="M974.02 43.58C974.88 43.58 975.57 42.88 975.57 42.03C975.57 41.18 974.87 40.48 974.02 40.48C973.17 40.48 972.47 41.18 972.47 42.03C972.47 42.88 973.17 43.58 974.02 43.58Z" fill="#474747"/>
</g>
<g style="mix-blend-mode:overlay">
<path d="M982.02 43.4898C982.83 43.4898 983.48 42.8298 983.48 42.0298C983.48 41.2298 982.82 40.5698 982.02 40.5698C981.22 40.5698 980.56 41.2298 980.56 42.0298C980.56 42.8298 981.22 43.4898 982.02 43.4898Z" fill="#474747"/>
</g>
<g style="mix-blend-mode:overlay">
<path d="M990.02 43.4001C990.78 43.4001 991.4 42.7801 991.4 42.0201C991.4 41.2601 990.78 40.6401 990.02 40.6401C989.26 40.6401 988.64 41.2601 988.64 42.0201C988.64 42.7801 989.26 43.4001 990.02 43.4001Z" fill="#474747"/>
</g>
<g style="mix-blend-mode:overlay">
<path d="M998.02 43.31C998.73 43.31 999.31 42.73 999.31 42.02C999.31 41.31 998.73 40.73 998.02 40.73C997.31 40.73 996.73 41.31 996.73 42.02C996.73 42.73 997.31 43.31 998.02 43.31Z" fill="#474747"/>
</g>
<g style="mix-blend-mode:overlay">
<path d="M1006.02 43.1998C1006.67 43.1998 1007.2 42.6698 1007.2 42.0198C1007.2 41.3698 1006.67 40.8398 1006.02 40.8398C1005.37 40.8398 1004.84 41.3698 1004.84 42.0198C1004.84 42.6698 1005.37 43.1998 1006.02 43.1998Z" fill="#474747"/>
</g>
<g style="mix-blend-mode:overlay">
<path d="M1014.02 43.1102C1014.62 43.1102 1015.11 42.6202 1015.11 42.0202C1015.11 41.4202 1014.62 40.9302 1014.02 40.9302C1013.42 40.9302 1012.93 41.4202 1012.93 42.0202C1012.93 42.6202 1013.42 43.1102 1014.02 43.1102Z" fill="#474747"/>
</g>
<g style="mix-blend-mode:overlay">
<path d="M1022.02 43C1022.56 43 1023 42.56 1023 42.02C1023 41.48 1022.56 41.04 1022.02 41.04C1021.48 41.04 1021.04 41.48 1021.04 42.02C1021.04 42.56 1021.48 43 1022.02 43Z" fill="#474747"/>
</g>
<g style="mix-blend-mode:overlay">
<path d="M1030.02 42.8899C1030.5 42.8899 1030.89 42.4999 1030.89 42.0199C1030.89 41.5399 1030.5 41.1499 1030.02 41.1499C1029.54 41.1499 1029.15 41.5399 1029.15 42.0199C1029.15 42.4999 1029.54 42.8899 1030.02 42.8899Z" fill="#474747"/>
</g>
<g style="mix-blend-mode:overlay">
<path d="M1038.02 42.7798C1038.44 42.7798 1038.77 42.4398 1038.77 42.0298C1038.77 41.6198 1038.43 41.2798 1038.02 41.2798C1037.61 41.2798 1037.27 41.6198 1037.27 42.0298C1037.27 42.4398 1037.61 42.7798 1038.02 42.7798Z" fill="#474747"/>
</g>
<g style="mix-blend-mode:overlay">
<path d="M1046.02 42.6701C1046.38 42.6701 1046.66 42.3801 1046.66 42.0301C1046.66 41.6801 1046.37 41.3901 1046.02 41.3901C1045.67 41.3901 1045.38 41.6801 1045.38 42.0301C1045.38 42.3801 1045.67 42.6701 1046.02 42.6701Z" fill="#474747"/>
</g>
<g style="mix-blend-mode:overlay">
<path d="M742.02 50.04C742.02 50.04 742.04 50.04 742.04 50.02C742.04 50 742.04 50 742.02 50C742 50 742 50 742 50.02C742 50.04 742.01 50.04 742.02 50.04Z" fill="#474747"/>
</g>
<g style="mix-blend-mode:overlay">
<path d="M750.02 50.1302C750.08 50.1302 750.13 50.0802 750.13 50.0202C750.13 49.9602 750.08 49.9102 750.02 49.9102C749.96 49.9102 749.91 49.9602 749.91 50.0202C749.91 50.0802 749.96 50.1302 750.02 50.1302Z" fill="#474747"/>
</g>
<g style="mix-blend-mode:overlay">
<path d="M758.02 50.2398C758.14 50.2398 758.24 50.1398 758.24 50.0198C758.24 49.8998 758.14 49.7998 758.02 49.7998C757.9 49.7998 757.8 49.8998 757.8 50.0198C757.8 50.1398 757.9 50.2398 758.02 50.2398Z" fill="#474747"/>
</g>
<g style="mix-blend-mode:overlay">
<path d="M766.02 50.3802C766.22 50.3802 766.37 50.2202 766.37 50.0302C766.37 49.8402 766.21 49.6802 766.02 49.6802C765.83 49.6802 765.67 49.8402 765.67 50.0302C765.67 50.2202 765.83 50.3802 766.02 50.3802Z" fill="#474747"/>
</g>
<g style="mix-blend-mode:overlay">
<path d="M774.02 50.4898C774.28 50.4898 774.49 50.2798 774.49 50.0198C774.49 49.7598 774.28 49.5498 774.02 49.5498C773.76 49.5498 773.55 49.7598 773.55 50.0198C773.55 50.2798 773.76 50.4898 774.02 50.4898Z" fill="#474747"/>
</g>
<g style="mix-blend-mode:overlay">
<path d="M782.02 50.5999C782.34 50.5999 782.6 50.3399 782.6 50.0199C782.6 49.6999 782.34 49.4399 782.02 49.4399C781.7 49.4399 781.44 49.6999 781.44 50.0199C781.44 50.3399 781.7 50.5999 782.02 50.5999Z" fill="#474747"/>
</g>
<g style="mix-blend-mode:overlay">
<path d="M790.02 50.7101C790.4 50.7101 790.71 50.4001 790.71 50.0201C790.71 49.6401 790.4 49.3301 790.02 49.3301C789.64 49.3301 789.33 49.6401 789.33 50.0201C789.33 50.4001 789.64 50.7101 790.02 50.7101Z" fill="#474747"/>
</g>
<g style="mix-blend-mode:overlay">
<path d="M798.02 50.8202C798.46 50.8202 798.82 50.4602 798.82 50.0202C798.82 49.5802 798.46 49.2202 798.02 49.2202C797.58 49.2202 797.22 49.5802 797.22 50.0202C797.22 50.4602 797.58 50.8202 798.02 50.8202Z" fill="#474747"/>
</g>
<g style="mix-blend-mode:overlay">
<path d="M806.02 50.9299C806.52 50.9299 806.93 50.5199 806.93 50.0199C806.93 49.5199 806.52 49.1099 806.02 49.1099C805.52 49.1099 805.11 49.5199 805.11 50.0199C805.11 50.5199 805.52 50.9299 806.02 50.9299Z" fill="#474747"/>
</g>
<g style="mix-blend-mode:overlay">
<path d="M814.02 51.04C814.58 51.04 815.04 50.58 815.04 50.02C815.04 49.46 814.58 49 814.02 49C813.46 49 813 49.46 813 50.02C813 50.58 813.46 51.04 814.02 51.04Z" fill="#474747"/>
</g>
<g style="mix-blend-mode:overlay">
<path d="M822.02 51.1501C822.64 51.1501 823.15 50.6401 823.15 50.0201C823.15 49.4001 822.64 48.8901 822.02 48.8901C821.4 48.8901 820.89 49.4001 820.89 50.0201C820.89 50.6401 821.4 51.1501 822.02 51.1501Z" fill="#474747"/>
</g>
<g style="mix-blend-mode:overlay">
<path d="M830.02 51.2598C830.71 51.2598 831.26 50.6998 831.26 50.0198C831.26 49.3398 830.7 48.7798 830.02 48.7798C829.34 48.7798 828.78 49.3398 828.78 50.0198C828.78 50.6998 829.34 51.2598 830.02 51.2598Z" fill="#474747"/>
</g>
<g style="mix-blend-mode:overlay">
<path d="M838.02 51.3802C838.77 51.3802 839.37 50.7702 839.37 50.0302C839.37 49.2902 838.76 48.6802 838.02 48.6802C837.28 48.6802 836.67 49.2902 836.67 50.0302C836.67 50.7702 837.28 51.3802 838.02 51.3802Z" fill="#474747"/>
</g>
<g style="mix-blend-mode:overlay">
<path d="M846.02 51.4601C846.82 51.4601 847.46 50.8101 847.46 50.0201C847.46 49.2301 846.81 48.5801 846.02 48.5801C845.23 48.5801 844.58 49.2301 844.58 50.0201C844.58 50.8101 845.23 51.4601 846.02 51.4601Z" fill="#474747"/>
</g>
<g style="mix-blend-mode:overlay">
<path d="M854.02 51.5502C854.87 51.5502 855.55 50.8602 855.55 50.0202C855.55 49.1802 854.86 48.4902 854.02 48.4902C853.18 48.4902 852.49 49.1802 852.49 50.0202C852.49 50.8602 853.18 51.5502 854.02 51.5502Z" fill="#474747"/>
</g>
<g style="mix-blend-mode:overlay">
<path d="M862.02 51.6399C862.91 51.6399 863.64 50.9099 863.64 50.0199C863.64 49.1299 862.92 48.3999 862.02 48.3999C861.12 48.3999 860.4 49.1299 860.4 50.0199C860.4 50.9099 861.13 51.6399 862.02 51.6399Z" fill="#474747"/>
</g>
<g style="mix-blend-mode:overlay">
<path d="M870.02 51.7301C870.96 51.7301 871.73 50.9701 871.73 50.0201C871.73 49.0701 870.97 48.3101 870.02 48.3101C869.07 48.3101 868.31 49.0701 868.31 50.0201C868.31 50.9701 869.07 51.7301 870.02 51.7301Z" fill="#474747"/>
</g>
<g style="mix-blend-mode:overlay">
<path d="M878.02 51.7998C879 51.7998 879.79 51.0098 879.79 50.0298C879.79 49.0498 879 48.2598 878.02 48.2598C877.04 48.2598 876.25 49.0498 876.25 50.0298C876.25 51.0098 877.04 51.7998 878.02 51.7998Z" fill="#474747"/>
</g>
<g style="mix-blend-mode:overlay">
<path d="M886.02 51.8602C887.04 51.8602 887.86 51.0402 887.86 50.0202C887.86 49.0002 887.04 48.1802 886.02 48.1802C885 48.1802 884.18 49.0002 884.18 50.0202C884.18 51.0402 885 51.8602 886.02 51.8602Z" fill="#474747"/>
</g>
<g style="mix-blend-mode:overlay">
<path d="M894.02 51.9299C895.07 51.9299 895.93 51.0799 895.93 50.0199C895.93 48.9599 895.08 48.1099 894.02 48.1099C892.96 48.1099 892.11 48.9599 892.11 50.0199C892.11 51.0799 892.96 51.9299 894.02 51.9299Z" fill="#474747"/>
</g>
<g style="mix-blend-mode:overlay">
<path d="M902.02 51.9698C903.1 51.9698 903.97 51.0998 903.97 50.0198C903.97 48.9398 903.1 48.0698 902.02 48.0698C900.94 48.0698 900.07 48.9398 900.07 50.0198C900.07 51.0998 900.94 51.9698 902.02 51.9698Z" fill="#474747"/>
</g>
<g style="mix-blend-mode:overlay">
<path d="M910.02 52.0001C911.11 52.0001 911.99 51.1201 911.99 50.0301C911.99 48.9401 911.11 48.0601 910.02 48.0601C908.93 48.0601 908.05 48.9401 908.05 50.0301C908.05 51.1201 908.93 52.0001 910.02 52.0001Z" fill="#474747"/>
</g>
<g style="mix-blend-mode:overlay">
<path d="M918.02 52.02C919.12 52.02 920.02 51.13 920.02 50.02C920.02 48.91 919.13 48.02 918.02 48.02C916.91 48.02 916.02 48.91 916.02 50.02C916.02 51.13 916.91 52.02 918.02 52.02Z" fill="#474747"/>
</g>
<g style="mix-blend-mode:overlay">
<path d="M926.02 52.0001C927.11 52.0001 927.99 51.1201 927.99 50.0301C927.99 48.9401 927.11 48.0601 926.02 48.0601C924.93 48.0601 924.05 48.9401 924.05 50.0301C924.05 51.1201 924.93 52.0001 926.02 52.0001Z" fill="#474747"/>
</g>
<g style="mix-blend-mode:overlay">
<path d="M934.02 51.9698C935.1 51.9698 935.97 51.0998 935.97 50.0198C935.97 48.9398 935.1 48.0698 934.02 48.0698C932.94 48.0698 932.07 48.9398 932.07 50.0198C932.07 51.0998 932.94 51.9698 934.02 51.9698Z" fill="#474747"/>
</g>
<g style="mix-blend-mode:overlay">
<path d="M942.02 51.9299C943.07 51.9299 943.93 51.0799 943.93 50.0199C943.93 48.9599 943.08 48.1099 942.02 48.1099C940.96 48.1099 940.11 48.9599 940.11 50.0199C940.11 51.0799 940.96 51.9299 942.02 51.9299Z" fill="#474747"/>
</g>
<g style="mix-blend-mode:overlay">
<path d="M950.02 51.8899C951.05 51.8899 951.88 51.0599 951.88 50.0299C951.88 48.9999 951.05 48.1699 950.02 48.1699C948.99 48.1699 948.16 48.9999 948.16 50.0299C948.16 51.0599 948.99 51.8899 950.02 51.8899Z" fill="#474747"/>
</g>
<g style="mix-blend-mode:overlay">
<path d="M958.02 51.8202C959.01 51.8202 959.82 51.0202 959.82 50.0202C959.82 49.0202 959.02 48.2202 958.02 48.2202C957.02 48.2202 956.22 49.0202 956.22 50.0202C956.22 51.0202 957.02 51.8202 958.02 51.8202Z" fill="#474747"/>
</g>
<g style="mix-blend-mode:overlay">
<path d="M966.02 51.7301C966.96 51.7301 967.73 50.9701 967.73 50.0201C967.73 49.0701 966.97 48.3101 966.02 48.3101C965.07 48.3101 964.31 49.0701 964.31 50.0201C964.31 50.9701 965.07 51.7301 966.02 51.7301Z" fill="#474747"/>
</g>
<g style="mix-blend-mode:overlay">
<path d="M974.02 51.6599C974.93 51.6599 975.66 50.9299 975.66 50.0199C975.66 49.1099 974.92 48.3799 974.02 48.3799C973.12 48.3799 972.38 49.1099 972.38 50.0199C972.38 50.9299 973.11 51.6599 974.02 51.6599Z" fill="#474747"/>
</g>
<g style="mix-blend-mode:overlay">
<path d="M982.02 51.58C982.88 51.58 983.57 50.88 983.57 50.03C983.57 49.18 982.87 48.48 982.02 48.48C981.17 48.48 980.47 49.18 980.47 50.03C980.47 50.88 981.17 51.58 982.02 51.58Z" fill="#474747"/>
</g>
<g style="mix-blend-mode:overlay">
<path d="M990.02 51.4601C990.82 51.4601 991.46 50.8101 991.46 50.0201C991.46 49.2301 990.81 48.5801 990.02 48.5801C989.23 48.5801 988.58 49.2301 988.58 50.0201C988.58 50.8101 989.23 51.4601 990.02 51.4601Z" fill="#474747"/>
</g>
<g style="mix-blend-mode:overlay">
<path d="M998.02 51.3802C998.77 51.3802 999.37 50.7702 999.37 50.0302C999.37 49.2902 998.76 48.6802 998.02 48.6802C997.28 48.6802 996.67 49.2902 996.67 50.0302C996.67 50.7702 997.28 51.3802 998.02 51.3802Z" fill="#474747"/>
</g>
<g style="mix-blend-mode:overlay">
<path d="M1006.02 51.2598C1006.71 51.2598 1007.26 50.6998 1007.26 50.0198C1007.26 49.3398 1006.7 48.7798 1006.02 48.7798C1005.34 48.7798 1004.78 49.3398 1004.78 50.0198C1004.78 50.6998 1005.34 51.2598 1006.02 51.2598Z" fill="#474747"/>
</g>
<g style="mix-blend-mode:overlay">
<path d="M1014.02 51.1799C1014.66 51.1799 1015.17 50.6599 1015.17 50.0299C1015.17 49.3999 1014.65 48.8799 1014.02 48.8799C1013.39 48.8799 1012.87 49.3999 1012.87 50.0299C1012.87 50.6599 1013.39 51.1799 1014.02 51.1799Z" fill="#474747"/>
</g>
<g style="mix-blend-mode:overlay">
<path d="M1022.02 51.06C1022.6 51.06 1023.06 50.59 1023.06 50.02C1023.06 49.45 1022.59 48.98 1022.02 48.98C1021.45 48.98 1020.98 49.45 1020.98 50.02C1020.98 50.59 1021.45 51.06 1022.02 51.06Z" fill="#474747"/>
</g>
<g style="mix-blend-mode:overlay">
<path d="M1030.02 50.9498C1030.53 50.9498 1030.95 50.5299 1030.95 50.0199C1030.95 49.5099 1030.53 49.0898 1030.02 49.0898C1029.51 49.0898 1029.09 49.5099 1029.09 50.0199C1029.09 50.5299 1029.51 50.9498 1030.02 50.9498Z" fill="#474747"/>
</g>
<g style="mix-blend-mode:overlay">
<path d="M1038.02 50.8402C1038.47 50.8402 1038.84 50.4702 1038.84 50.0202C1038.84 49.5702 1038.47 49.2002 1038.02 49.2002C1037.57 49.2002 1037.2 49.5702 1037.2 50.0202C1037.2 50.4702 1037.57 50.8402 1038.02 50.8402Z" fill="#474747"/>
</g>
<g style="mix-blend-mode:overlay">
<path d="M1046.02 50.7301C1046.41 50.7301 1046.73 50.4101 1046.73 50.0201C1046.73 49.6301 1046.41 49.3101 1046.02 49.3101C1045.63 49.3101 1045.31 49.6301 1045.31 50.0201C1045.31 50.4101 1045.63 50.7301 1046.02 50.7301Z" fill="#474747"/>
</g>
<g style="mix-blend-mode:overlay">
<path d="M742.02 58.0702C742.02 58.0702 742.06 58.0502 742.06 58.0302C742.06 58.0102 742.04 57.9902 742.02 57.9902C742 57.9902 741.98 58.0102 741.98 58.0302C741.98 58.0502 742 58.0702 742.02 58.0702Z" fill="#474747"/>
</g>
<g style="mix-blend-mode:overlay">
<path d="M750.02 58.1799C750.11 58.1799 750.18 58.1099 750.18 58.0199C750.18 57.9299 750.11 57.8599 750.02 57.8599C749.93 57.8599 749.86 57.9299 749.86 58.0199C749.86 58.1099 749.93 58.1799 750.02 58.1799Z" fill="#474747"/>
</g>
<g style="mix-blend-mode:overlay">
<path d="M758.02 58.29C758.17 58.29 758.29 58.17 758.29 58.02C758.29 57.87 758.17 57.75 758.02 57.75C757.87 57.75 757.75 57.87 757.75 58.02C757.75 58.17 757.87 58.29 758.02 58.29Z" fill="#474747"/>
</g>
<g style="mix-blend-mode:overlay">
<path d="M766.02 58.4001C766.23 58.4001 766.4 58.2301 766.4 58.0201C766.4 57.8101 766.23 57.6401 766.02 57.6401C765.81 57.6401 765.64 57.8101 765.64 58.0201C765.64 58.2301 765.81 58.4001 766.02 58.4001Z" fill="#474747"/>
</g>
<g style="mix-blend-mode:overlay">
<path d="M774.02 58.5298C774.3 58.5298 774.53 58.2998 774.53 58.0198C774.53 57.7398 774.3 57.5098 774.02 57.5098C773.74 57.5098 773.51 57.7398 773.51 58.0198C773.51 58.2998 773.74 58.5298 774.02 58.5298Z" fill="#474747"/>
</g>
<g style="mix-blend-mode:overlay">
<path d="M782.02 58.6399C782.36 58.6399 782.64 58.3599 782.64 58.0199C782.64 57.6799 782.36 57.3999 782.02 57.3999C781.68 57.3999 781.4 57.6799 781.4 58.0199C781.4 58.3599 781.68 58.6399 782.02 58.6399Z" fill="#474747"/>
</g>
<g style="mix-blend-mode:overlay">
<path d="M790.02 58.75C790.42 58.75 790.75 58.4201 790.75 58.0201C790.75 57.6201 790.42 57.29 790.02 57.29C789.62 57.29 789.29 57.6201 789.29 58.0201C789.29 58.4201 789.62 58.75 790.02 58.75Z" fill="#474747"/>
</g>
<g style="mix-blend-mode:overlay">
<path d="M798.02 58.8699C798.49 58.8699 798.86 58.4899 798.86 58.0299C798.86 57.5699 798.48 57.1899 798.02 57.1899C797.56 57.1899 797.18 57.5699 797.18 58.0299C797.18 58.4899 797.56 58.8699 798.02 58.8699Z" fill="#474747"/>
</g>
<g style="mix-blend-mode:overlay">
<path d="M806.02 59C806.56 59 807 58.5601 807 58.0201C807 57.4801 806.56 57.04 806.02 57.04C805.48 57.04 805.04 57.4801 805.04 58.0201C805.04 58.5601 805.48 59 806.02 59Z" fill="#474747"/>
</g>
<g style="mix-blend-mode:overlay">
<path d="M814.02 59.1102C814.62 59.1102 815.11 58.6202 815.11 58.0202C815.11 57.4202 814.62 56.9302 814.02 56.9302C813.42 56.9302 812.93 57.4202 812.93 58.0202C812.93 58.6202 813.42 59.1102 814.02 59.1102Z" fill="#474747"/>
</g>
<g style="mix-blend-mode:overlay">
<path d="M822.02 59.2198C822.68 59.2198 823.22 58.6798 823.22 58.0198C823.22 57.3598 822.68 56.8198 822.02 56.8198C821.36 56.8198 820.82 57.3598 820.82 58.0198C820.82 58.6798 821.36 59.2198 822.02 59.2198Z" fill="#474747"/>
</g>
<g style="mix-blend-mode:overlay">
<path d="M830.02 59.33C830.74 59.33 831.33 58.74 831.33 58.02C831.33 57.3 830.74 56.71 830.02 56.71C829.3 56.71 828.71 57.3 828.71 58.02C828.71 58.74 829.3 59.33 830.02 59.33Z" fill="#474747"/>
</g>
<g style="mix-blend-mode:overlay">
<path d="M838.02 59.4401C838.8 59.4401 839.44 58.8001 839.44 58.0201C839.44 57.2401 838.8 56.6001 838.02 56.6001C837.24 56.6001 836.6 57.2401 836.6 58.0201C836.6 58.8001 837.24 59.4401 838.02 59.4401Z" fill="#474747"/>
</g>
<g style="mix-blend-mode:overlay">
<path d="M846.02 59.5298C846.85 59.5298 847.53 58.8498 847.53 58.0198C847.53 57.1898 846.85 56.5098 846.02 56.5098C845.19 56.5098 844.51 57.1898 844.51 58.0198C844.51 58.8498 845.19 59.5298 846.02 59.5298Z" fill="#474747"/>
</g>
<g style="mix-blend-mode:overlay">
<path d="M854.02 59.6399C854.91 59.6399 855.64 58.9099 855.64 58.0199C855.64 57.1299 854.92 56.3999 854.02 56.3999C853.12 56.3999 852.4 57.1299 852.4 58.0199C852.4 58.9099 853.13 59.6399 854.02 59.6399Z" fill="#474747"/>
</g>
<g style="mix-blend-mode:overlay">
<path d="M862.02 59.7301C862.96 59.7301 863.73 58.9701 863.73 58.0201C863.73 57.0701 862.97 56.3101 862.02 56.3101C861.07 56.3101 860.31 57.0701 860.31 58.0201C860.31 58.9701 861.07 59.7301 862.02 59.7301Z" fill="#474747"/>
</g>
<g style="mix-blend-mode:overlay">
<path d="M870.02 59.8202C871.01 59.8202 871.82 59.0202 871.82 58.0202C871.82 57.0202 871.02 56.2202 870.02 56.2202C869.02 56.2202 868.22 57.0202 868.22 58.0202C868.22 59.0202 869.02 59.8202 870.02 59.8202Z" fill="#474747"/>
</g>
<g style="mix-blend-mode:overlay">
<path d="M878.02 59.9099C879.06 59.9099 879.91 59.0699 879.91 58.0199C879.91 56.9699 879.07 56.1299 878.02 56.1299C876.97 56.1299 876.13 56.9699 876.13 58.0199C876.13 59.0699 876.97 59.9099 878.02 59.9099Z" fill="#474747"/>
</g>
<g style="mix-blend-mode:overlay">
<path d="M886.02 60.0001C887.11 60.0001 887.99 59.1201 887.99 58.0301C887.99 56.9401 887.11 56.0601 886.02 56.0601C884.93 56.0601 884.05 56.9401 884.05 58.0301C884.05 59.1201 884.93 60.0001 886.02 60.0001Z" fill="#474747"/>
</g>
<g style="mix-blend-mode:overlay">
<path d="M894.02 60.04C895.13 60.04 896.04 59.14 896.04 58.02C896.04 56.9 895.14 56 894.02 56C892.9 56 892 56.9 892 58.02C892 59.14 892.9 60.04 894.02 60.04Z" fill="#474747"/>
</g>
<g style="mix-blend-mode:overlay">
<path d="M902.02 60.0902C903.16 60.0902 904.08 59.1702 904.08 58.0302C904.08 56.8902 903.16 55.9702 902.02 55.9702C900.88 55.9702 899.96 56.8902 899.96 58.0302C899.96 59.1702 900.88 60.0902 902.02 60.0902Z" fill="#474747"/>
</g>
<g style="mix-blend-mode:overlay">
<path d="M910.02 60.1302C911.18 60.1302 912.13 59.1902 912.13 58.0202C912.13 56.8502 911.19 55.9102 910.02 55.9102C908.85 55.9102 907.91 56.8502 907.91 58.0202C907.91 59.1902 908.85 60.1302 910.02 60.1302Z" fill="#474747"/>
</g>
<g style="mix-blend-mode:overlay">
<path d="M918.02 60.1302C919.18 60.1302 920.13 59.1902 920.13 58.0202C920.13 56.8502 919.19 55.9102 918.02 55.9102C916.85 55.9102 915.91 56.8502 915.91 58.0202C915.91 59.1902 916.85 60.1302 918.02 60.1302Z" fill="#474747"/>
</g>
<g style="mix-blend-mode:overlay">
<path d="M926.02 60.1302C927.18 60.1302 928.13 59.1902 928.13 58.0202C928.13 56.8502 927.19 55.9102 926.02 55.9102C924.85 55.9102 923.91 56.8502 923.91 58.0202C923.91 59.1902 924.85 60.1302 926.02 60.1302Z" fill="#474747"/>
</g>
<g style="mix-blend-mode:overlay">
<path d="M934.02 60.1102C935.17 60.1102 936.11 59.1802 936.11 58.0202C936.11 56.8602 935.18 55.9302 934.02 55.9302C932.86 55.9302 931.93 56.8602 931.93 58.0202C931.93 59.1802 932.86 60.1102 934.02 60.1102Z" fill="#474747"/>
</g>
<g style="mix-blend-mode:overlay">
<path d="M942.02 60.06C943.15 60.06 944.06 59.15 944.06 58.02C944.06 56.89 943.15 55.98 942.02 55.98C940.89 55.98 939.98 56.89 939.98 58.02C939.98 59.15 940.89 60.06 942.02 60.06Z" fill="#474747"/>
</g>
<g style="mix-blend-mode:overlay">
<path d="M950.02 60.0001C951.11 60.0001 951.99 59.1201 951.99 58.0301C951.99 56.9401 951.11 56.0601 950.02 56.0601C948.93 56.0601 948.05 56.9401 948.05 58.0301C948.05 59.1201 948.93 60.0001 950.02 60.0001Z" fill="#474747"/>
</g>
<g style="mix-blend-mode:overlay">
<path d="M958.02 59.9099C959.06 59.9099 959.91 59.0699 959.91 58.0199C959.91 56.9699 959.07 56.1299 958.02 56.1299C956.97 56.1299 956.13 56.9699 956.13 58.0199C956.13 59.0699 956.97 59.9099 958.02 59.9099Z" fill="#474747"/>
</g>
<g style="mix-blend-mode:overlay">
<path d="M966.02 59.8202C967.01 59.8202 967.82 59.0202 967.82 58.0202C967.82 57.0202 967.02 56.2202 966.02 56.2202C965.02 56.2202 964.22 57.0202 964.22 58.0202C964.22 59.0202 965.02 59.8202 966.02 59.8202Z" fill="#474747"/>
</g>
<g style="mix-blend-mode:overlay">
<path d="M974.02 59.7301C974.96 59.7301 975.73 58.9701 975.73 58.0201C975.73 57.0701 974.97 56.3101 974.02 56.3101C973.07 56.3101 972.31 57.0701 972.31 58.0201C972.31 58.9701 973.07 59.7301 974.02 59.7301Z" fill="#474747"/>
</g>
<g style="mix-blend-mode:overlay">
<path d="M982.02 59.6399C982.91 59.6399 983.64 58.9099 983.64 58.0199C983.64 57.1299 982.92 56.3999 982.02 56.3999C981.12 56.3999 980.4 57.1299 980.4 58.0199C980.4 58.9099 981.13 59.6399 982.02 59.6399Z" fill="#474747"/>
</g>
<g style="mix-blend-mode:overlay">
<path d="M990.02 59.5502C990.87 59.5502 991.55 58.8602 991.55 58.0202C991.55 57.1802 990.86 56.4902 990.02 56.4902C989.18 56.4902 988.49 57.1802 988.49 58.0202C988.49 58.8602 989.18 59.5502 990.02 59.5502Z" fill="#474747"/>
</g>
<g style="mix-blend-mode:overlay">
<path d="M998.02 59.4401C998.8 59.4401 999.44 58.8001 999.44 58.0201C999.44 57.2401 998.8 56.6001 998.02 56.6001C997.24 56.6001 996.6 57.2401 996.6 58.0201C996.6 58.8001 997.24 59.4401 998.02 59.4401Z" fill="#474747"/>
</g>
<g style="mix-blend-mode:overlay">
<path d="M1006.02 59.33C1006.74 59.33 1007.33 58.74 1007.33 58.02C1007.33 57.3 1006.74 56.71 1006.02 56.71C1005.3 56.71 1004.71 57.3 1004.71 58.02C1004.71 58.74 1005.3 59.33 1006.02 59.33Z" fill="#474747"/>
</g>
<g style="mix-blend-mode:overlay">
<path d="M1014.02 59.2198C1014.68 59.2198 1015.22 58.6798 1015.22 58.0198C1015.22 57.3598 1014.68 56.8198 1014.02 56.8198C1013.36 56.8198 1012.82 57.3598 1012.82 58.0198C1012.82 58.6798 1013.36 59.2198 1014.02 59.2198Z" fill="#474747"/>
</g>
<g style="mix-blend-mode:overlay">
<path d="M1022.02 59.1102C1022.62 59.1102 1023.11 58.6202 1023.11 58.0202C1023.11 57.4202 1022.62 56.9302 1022.02 56.9302C1021.42 56.9302 1020.93 57.4202 1020.93 58.0202C1020.93 58.6202 1021.42 59.1102 1022.02 59.1102Z" fill="#474747"/>
</g>
<g style="mix-blend-mode:overlay">
<path d="M1030.02 59C1030.56 59 1031 58.5601 1031 58.0201C1031 57.4801 1030.56 57.04 1030.02 57.04C1029.48 57.04 1029.04 57.4801 1029.04 58.0201C1029.04 58.5601 1029.48 59 1030.02 59Z" fill="#474747"/>
</g>
<g style="mix-blend-mode:overlay">
<path d="M1038.02 58.8899C1038.5 58.8899 1038.89 58.4999 1038.89 58.0199C1038.89 57.5399 1038.5 57.1499 1038.02 57.1499C1037.54 57.1499 1037.15 57.5399 1037.15 58.0199C1037.15 58.4999 1037.54 58.8899 1038.02 58.8899Z" fill="#474747"/>
</g>
<g style="mix-blend-mode:overlay">
<path d="M1046.02 58.7798C1046.44 58.7798 1046.77 58.4398 1046.77 58.0298C1046.77 57.6198 1046.43 57.2798 1046.02 57.2798C1045.61 57.2798 1045.27 57.6198 1045.27 58.0298C1045.27 58.4398 1045.61 58.7798 1046.02 58.7798Z" fill="#474747"/>
</g>
<g style="mix-blend-mode:overlay">
<path d="M886.02 68.0902C887.16 68.0902 888.08 67.1702 888.08 66.0302C888.08 64.8902 887.16 63.9702 886.02 63.9702C884.88 63.9702 883.96 64.8902 883.96 66.0302C883.96 67.1702 884.88 68.0902 886.02 68.0902Z" fill="#474747"/>
</g>
<g style="mix-blend-mode:overlay">
<path d="M894.02 68.1501C895.2 68.1501 896.15 67.2001 896.15 66.0201C896.15 64.8401 895.2 63.8901 894.02 63.8901C892.84 63.8901 891.89 64.8401 891.89 66.0201C891.89 67.2001 892.84 68.1501 894.02 68.1501Z" fill="#474747"/>
</g>
<g style="mix-blend-mode:overlay">
<path d="M902.02 68.2198C903.23 68.2198 904.22 67.2398 904.22 66.0198C904.22 64.7998 903.24 63.8198 902.02 63.8198C900.8 63.8198 899.82 64.7998 899.82 66.0198C899.82 67.2398 900.8 68.2198 902.02 68.2198Z" fill="#474747"/>
</g>
<g style="mix-blend-mode:overlay">
<path d="M910.02 68.2398C911.25 68.2398 912.24 67.2498 912.24 66.0198C912.24 64.7898 911.25 63.7998 910.02 63.7998C908.79 63.7998 907.8 64.7898 907.8 66.0198C907.8 67.2498 908.79 68.2398 910.02 68.2398Z" fill="#474747"/>
</g>
<g style="mix-blend-mode:overlay">
<path d="M918.02 68.2598C919.26 68.2598 920.26 67.2598 920.26 66.0198C920.26 64.7798 919.26 63.7798 918.02 63.7798C916.78 63.7798 915.78 64.7798 915.78 66.0198C915.78 67.2598 916.78 68.2598 918.02 68.2598Z" fill="#474747"/>
</g>
<g style="mix-blend-mode:overlay">
<path d="M926.02 68.2398C927.25 68.2398 928.24 67.2498 928.24 66.0198C928.24 64.7898 927.25 63.7998 926.02 63.7998C924.79 63.7998 923.8 64.7898 923.8 66.0198C923.8 67.2498 924.79 68.2398 926.02 68.2398Z" fill="#474747"/>
</g>
<g style="mix-blend-mode:overlay">
<path d="M934.02 68.2198C935.23 68.2198 936.22 67.2398 936.22 66.0198C936.22 64.7998 935.24 63.8198 934.02 63.8198C932.8 63.8198 931.82 64.7998 931.82 66.0198C931.82 67.2398 932.8 68.2198 934.02 68.2198Z" fill="#474747"/>
</g>
<g style="mix-blend-mode:overlay">
<path d="M942.02 68.1501C943.2 68.1501 944.15 67.2001 944.15 66.0201C944.15 64.8401 943.2 63.8901 942.02 63.8901C940.84 63.8901 939.89 64.8401 939.89 66.0201C939.89 67.2001 940.84 68.1501 942.02 68.1501Z" fill="#474747"/>
</g>
<g style="mix-blend-mode:overlay">
<path d="M950.02 68.0902C951.16 68.0902 952.08 67.1702 952.08 66.0302C952.08 64.8902 951.16 63.9702 950.02 63.9702C948.88 63.9702 947.96 64.8902 947.96 66.0302C947.96 67.1702 948.88 68.0902 950.02 68.0902Z" fill="#474747"/>
</g>
</g>
</g>
</g>
<defs>
<radialGradient id="paint0_radial_414_19152" cx="0" cy="0" r="1" gradientUnits="userSpaceOnUse" gradientTransform="translate(803.429 9.964) rotate(-45) scale(263.289 84.0924)">
<stop stop-color="#5C5C5C"/>
<stop offset="0.15" stop-color="#828282"/>
<stop offset="0.34" stop-color="#AEAEAE"/>
<stop offset="0.53" stop-color="#D1D1D1"/>
<stop offset="0.71" stop-color="#EAEAEA"/>
<stop offset="0.87" stop-color="#F9F9F9"/>
<stop offset="1" stop-color="white"/>
</radialGradient>
<radialGradient id="paint1_radial_414_19152" cx="0" cy="0" r="1" gradientUnits="userSpaceOnUse" gradientTransform="translate(510.28 -14.7563) rotate(-45) scale(106.962 34.1628)">
<stop stop-color="#5C5C5C"/>
<stop offset="0.15" stop-color="#828282"/>
<stop offset="0.34" stop-color="#AEAEAE"/>
<stop offset="0.53" stop-color="#D1D1D1"/>
<stop offset="0.71" stop-color="#EAEAEA"/>
<stop offset="0.87" stop-color="#F9F9F9"/>
<stop offset="1" stop-color="white"/>
</radialGradient>
<radialGradient id="paint2_radial_414_19152" cx="0" cy="0" r="1" gradientUnits="userSpaceOnUse" gradientTransform="translate(767.131 141.261) rotate(-45) scale(198.696 63.462)">
<stop stop-color="#5C5C5C"/>
<stop offset="0.15" stop-color="#828282"/>
<stop offset="0.34" stop-color="#AEAEAE"/>
<stop offset="0.53" stop-color="#D1D1D1"/>
<stop offset="0.71" stop-color="#EAEAEA"/>
<stop offset="0.87" stop-color="#F9F9F9"/>
<stop offset="1" stop-color="white"/>
</radialGradient>
</defs>
</svg>
