<svg width="48" height="48" viewBox="0 0 48 48" fill="none" xmlns="http://www.w3.org/2000/svg">
<rect x="1.60059" y="1.60059" width="45.6" height="45.6" rx="22.8" fill="#404EED"/>
<path d="M34.1033 15.3692C32.3168 14.5489 30.404 13.9454 28.4044 13.6023C28.3689 13.5944 28.3335 13.6142 28.3137 13.6457C28.0692 14.0835 27.7931 14.6553 27.6038 15.1049C25.4505 14.7815 23.309 14.7815 21.2029 15.1049C21.0136 14.6474 20.7297 14.0835 20.4812 13.6457C20.4615 13.6142 20.426 13.5984 20.3905 13.6023C18.391 13.9454 16.4782 14.5489 14.6916 15.3692C14.6758 15.3771 14.664 15.3889 14.6522 15.4007C11.0238 20.8235 10.03 26.1123 10.5151 31.3379C10.5151 31.3616 10.5308 31.3892 10.5506 31.4049C12.9445 33.1639 15.2674 34.2327 17.543 34.9386C17.5785 34.9505 17.618 34.9386 17.6416 34.9071C18.1819 34.1696 18.6591 33.3966 19.0733 32.5802C19.0969 32.5329 19.0733 32.4777 19.0259 32.458C18.2648 32.17 17.5391 31.8151 16.841 31.4168C16.7858 31.3852 16.7819 31.3063 16.8331 31.2669C16.9791 31.1565 17.125 31.0421 17.267 30.9277C17.2906 30.908 17.3261 30.9041 17.3577 30.9159C21.9404 33.0101 26.9018 33.0101 31.4294 30.9159C31.4609 30.9001 31.4964 30.9041 31.5201 30.9277C31.6621 31.0421 31.808 31.1604 31.9539 31.2669C32.0052 31.3063 32.0012 31.3852 31.946 31.4168C31.248 31.823 30.5223 32.17 29.7611 32.458C29.7099 32.4777 29.6901 32.5329 29.7138 32.5842C30.1358 33.4005 30.613 34.1735 31.1415 34.911C31.1651 34.9426 31.2046 34.9544 31.2401 34.9426C33.5275 34.2366 35.8465 33.1678 38.2444 31.4089C38.2641 31.3931 38.2799 31.3694 38.2799 31.3458C38.8636 25.3038 37.3018 20.0584 34.1388 15.4086C34.1309 15.3928 34.1191 15.381 34.1033 15.3771V15.3692ZM19.7595 28.1591C18.3791 28.1591 17.2433 26.8932 17.2433 25.3353C17.2433 23.7775 18.3594 22.5115 19.7595 22.5115C21.1596 22.5115 22.2993 23.7893 22.2757 25.3353C22.2757 26.8892 21.1596 28.1591 19.7595 28.1591ZM29.0631 28.1591C27.6827 28.1591 26.5469 26.8932 26.5469 25.3353C26.5469 23.7775 27.663 22.5115 29.0631 22.5115C30.4631 22.5115 31.6029 23.7893 31.5793 25.3353C31.5793 26.8892 30.475 28.1591 29.0631 28.1591Z" fill="white"/>
</svg>
