<svg width="24" height="24" viewBox="0 0 24 24" fill="none" xmlns="http://www.w3.org/2000/svg">
<g clip-path="url(#clip0_615_19834)">
<path d="M8.20067 23.6C10.2978 23.6 11.9999 21.8976 11.9999 19.8V16H8.20067C6.10349 16 4.40143 17.7024 4.40143 19.8C4.40143 21.8976 6.10349 23.6 8.20067 23.6Z" fill="#0ACF83"/>
<path d="M4.40143 12.1999C4.40143 10.1023 6.10349 8.3999 8.20067 8.3999H11.9999V15.9999H8.20067C6.10349 15.9999 4.40143 14.2975 4.40143 12.1999Z" fill="#A259FF"/>
<path d="M4.40143 4.5998C4.40143 2.5022 6.10349 0.799805 8.20067 0.799805H11.9999V8.3998H8.20067C6.10349 8.3998 4.40143 6.6974 4.40143 4.5998Z" fill="#F24E1E"/>
<path d="M11.9999 0.799805H15.7991C17.8963 0.799805 19.5984 2.5022 19.5984 4.5998C19.5984 6.6974 17.8963 8.3998 15.7991 8.3998H11.9999V0.799805Z" fill="#FF7262"/>
<path d="M19.5984 12.1999C19.5984 14.2975 17.8963 15.9999 15.7991 15.9999C13.702 15.9999 11.9999 14.2975 11.9999 12.1999C11.9999 10.1023 13.702 8.3999 15.7991 8.3999C17.8963 8.3999 19.5984 10.1023 19.5984 12.1999Z" fill="#1ABCFE"/>
</g>
<defs>
<clipPath id="clip0_615_19834">
<rect width="15.2" height="22.8" fill="white" transform="translate(4.3999 0.799805)"/>
</clipPath>
</defs>
</svg>
