<svg width="23" height="23" viewBox="0 0 23 23" fill="none" xmlns="http://www.w3.org/2000/svg">
<g clip-path="url(#clip0_633_22405)">
<path fill-rule="evenodd" clip-rule="evenodd" d="M4.3228 4.11555C5.00355 4.66863 5.25892 4.62643 6.53726 4.54114L18.5886 3.81751C18.8442 3.81751 18.6317 3.56252 18.5464 3.52015L16.545 2.07323C16.1615 1.77549 15.6505 1.43451 14.6713 1.51981L3.00192 2.37094C2.57633 2.41313 2.49134 2.62592 2.66081 2.79648L4.3228 4.11555ZM5.04635 6.92413V19.6043C5.04635 20.2857 5.38689 20.5407 6.15336 20.4985L19.3978 19.7321C20.1647 19.69 20.2501 19.2213 20.2501 18.6677V6.07262C20.2501 5.51993 20.0375 5.22188 19.5681 5.26442L5.72748 6.07262C5.21668 6.11554 5.0463 6.37105 5.0463 6.92413H5.04635ZM18.1212 7.60431C18.2061 7.98766 18.1212 8.37065 17.7372 8.41376L17.099 8.5409V17.9022C16.545 18.2 16.0341 18.3702 15.6083 18.3702C14.9266 18.3702 14.7559 18.1573 14.2453 17.5194L10.0711 10.9664V17.3066L11.392 17.6047C11.392 17.6047 11.392 18.3702 10.3264 18.3702L7.38852 18.5407C7.30318 18.3702 7.38852 17.9451 7.68652 17.8599L8.45317 17.6474V9.26449L7.38873 9.17919C7.30335 8.79585 7.51597 8.24312 8.11262 8.20023L11.2642 7.98778L15.6083 14.6261V8.75365L14.5007 8.62655C14.4157 8.15791 14.7559 7.81762 15.1819 7.77542L18.1212 7.60431ZM2.02214 1.22211L14.1601 0.32823C15.6507 0.200392 16.0342 0.286034 16.9711 0.966563L20.8457 3.68984C21.485 4.15814 21.6981 4.28563 21.6981 4.79612V19.7321C21.6981 20.6682 21.3571 21.2218 20.1649 21.3065L6.06901 22.1577C5.17405 22.2004 4.74813 22.0729 4.27944 21.4768L1.42613 17.7747C0.914905 17.0933 0.702286 16.5835 0.702286 15.987V2.71088C0.702286 1.9454 1.04339 1.30685 2.02214 1.22211Z" fill="black"/>
</g>
<defs>
<clipPath id="clip0_633_22405">
<rect width="22" height="22" fill="white" transform="translate(0.200195 0.200195)"/>
</clipPath>
</defs>
</svg>
