<svg width="48" height="48" viewBox="0 0 48 48" fill="none" xmlns="http://www.w3.org/2000/svg">
<g clip-path="url(#clip0_633_22025)">
<path d="M11.0772 4.59548L24.3522 3.2002L37.6272 4.59548L47.9046 18.3119L24.3522 45.5791L0.799805 18.3119L11.0772 4.59548Z" fill="#FDB300"/>
<path d="M10.3397 18.312L24.3522 45.5793L0.799805 18.312H10.3397Z" fill="#EA6C00"/>
<path d="M38.3646 18.312L24.3521 45.5793L47.9045 18.312H38.3646Z" fill="#EA6C00"/>
<path d="M10.3396 18.312H38.3647L24.3521 45.5793L10.3396 18.312Z" fill="#FDAD00"/>
<path d="M24.3521 3.2002L11.0771 4.59547L10.3396 18.3119L24.3521 3.2002Z" fill="#FDD231"/>
<path d="M24.3522 3.2002L37.6273 4.59547L38.3647 18.3119L24.3522 3.2002Z" fill="#FDD231"/>
<path d="M47.9048 18.3121L37.6273 4.5957L38.3649 18.3121H47.9048Z" fill="#FDAD00"/>
<path d="M0.799805 18.3121L11.0772 4.5957L10.3397 18.3121H0.799805Z" fill="#FDAD00"/>
<path d="M24.3521 3.2002L10.3396 18.3119H38.3647L24.3521 3.2002Z" fill="#FEEEB7"/>
</g>
<defs>
<clipPath id="clip0_633_22025">
<rect width="47.2" height="42.4" fill="white" transform="translate(0.799805 3.2002)"/>
</clipPath>
</defs>
</svg>
