<svg width="24" height="24" viewBox="0 0 24 24" fill="none" xmlns="http://www.w3.org/2000/svg">
<g clip-path="url(#clip0_615_19881)">
<path d="M5.912 15.0586C5.912 16.3232 4.88996 17.3452 3.62539 17.3452C2.36082 17.3452 1.33878 16.3232 1.33878 15.0586C1.33878 13.794 2.36082 12.772 3.62539 12.772H5.912V15.0586ZM7.05531 15.0586C7.05531 13.794 8.07736 12.772 9.34193 12.772C10.6065 12.772 11.6285 13.794 11.6285 15.0586V20.7751C11.6285 22.0397 10.6065 23.0617 9.34193 23.0617C8.07736 23.0617 7.05531 22.0397 7.05531 20.7751V15.0586Z" fill="#E01E5A"/>
<path d="M9.34191 5.87743C8.07735 5.87743 7.0553 4.85538 7.0553 3.59081C7.0553 2.32625 8.07735 1.3042 9.34191 1.3042C10.6065 1.3042 11.6285 2.32625 11.6285 3.59081V5.87743H9.34191ZM9.34191 7.03806C10.6065 7.03806 11.6285 8.06011 11.6285 9.32467C11.6285 10.5892 10.6065 11.6113 9.34191 11.6113H3.60806C2.34349 11.6113 1.32144 10.5892 1.32144 9.32467C1.32144 8.06011 2.34349 7.03806 3.60806 7.03806H9.34191Z" fill="#36C5F0"/>
<path d="M18.5057 9.32467C18.5057 8.06011 19.5278 7.03806 20.7923 7.03806C22.0569 7.03806 23.0789 8.06011 23.0789 9.32467C23.0789 10.5892 22.0569 11.6113 20.7923 11.6113H18.5057V9.32467ZM17.3624 9.32467C17.3624 10.5892 16.3404 11.6113 15.0758 11.6113C13.8112 11.6113 12.7892 10.5892 12.7892 9.32467V3.59081C12.7892 2.32625 13.8112 1.3042 15.0758 1.3042C16.3404 1.3042 17.3624 2.32625 17.3624 3.59081V9.32467Z" fill="#2EB67D"/>
<path d="M15.0758 18.4885C16.3404 18.4885 17.3624 19.5106 17.3624 20.7751C17.3624 22.0397 16.3404 23.0617 15.0758 23.0617C13.8112 23.0617 12.7892 22.0397 12.7892 20.7751V18.4885H15.0758ZM15.0758 17.3452C13.8112 17.3452 12.7892 16.3232 12.7892 15.0586C12.7892 13.794 13.8112 12.772 15.0758 12.772H20.8097C22.0742 12.772 23.0963 13.794 23.0963 15.0586C23.0963 16.3232 22.0742 17.3452 20.8097 17.3452H15.0758Z" fill="#ECB22E"/>
</g>
<defs>
<clipPath id="clip0_615_19881">
<rect width="22" height="22" fill="white" transform="translate(1.2002 1.2002)"/>
</clipPath>
</defs>
</svg>
