<svg width="48" height="48" viewBox="0 0 48 48" fill="none" xmlns="http://www.w3.org/2000/svg">
<rect x="2.3999" y="1.59961" width="44" height="44" rx="8" fill="#470137"/>
<path d="M25.6961 15.1044L20.4123 23.5365L26.0657 32.6649C26.1018 32.7292 26.112 32.8047 26.0942 32.8762C26.0747 32.9422 26.0088 32.9846 25.8952 33.0029H21.8613C21.7454 33.0146 21.6285 32.9944 21.5233 32.9448C21.4182 32.8951 21.3288 32.8178 21.2648 32.7212C20.8855 31.989 20.5068 31.3152 20.1282 30.592C19.7495 29.8694 19.3471 29.1324 18.921 28.381C18.4951 27.6303 18.0738 26.8699 17.6569 26.0997H17.6284C17.2493 26.8509 16.8565 27.602 16.4497 28.3529C16.0418 29.1041 15.6393 29.8505 15.2422 30.5921C14.8444 31.3341 14.4373 32.0172 14.0204 32.7495C13.9896 32.8279 13.9346 32.8946 13.8632 32.9402C13.7918 32.9857 13.7077 33.0077 13.623 33.0029H9.73084C9.71486 33.0046 9.69872 33.0029 9.68343 32.998C9.66815 32.9931 9.65407 32.9851 9.64208 32.9745C9.63009 32.9639 9.62045 32.9509 9.61379 32.9364C9.60713 32.9219 9.60359 32.9062 9.60339 32.8903C9.59233 32.8216 9.60743 32.7513 9.64576 32.6931L15.1286 23.8182L9.78781 15.0762C9.73082 15.0015 9.72182 14.9403 9.75931 14.8931C9.78031 14.8691 9.80665 14.8502 9.83625 14.838C9.86584 14.8258 9.8979 14.8206 9.92988 14.8227H13.9356C14.023 14.818 14.1103 14.8324 14.1913 14.8651C14.2591 14.9033 14.3173 14.9562 14.3615 15.0199C14.7027 15.7711 15.0813 16.3077 15.4978 17.0583C15.9143 17.8097 16.3357 18.5514 16.762 19.2835C17.1882 20.0157 17.5812 20.7575 17.941 21.5087H17.9695C18.3481 20.7389 18.7315 19.9878 19.1196 19.2554C19.508 18.523 19.9058 17.786 20.3129 17.0444C20.7201 16.3028 21.1126 15.7803 21.492 15.0481C21.5136 14.9785 21.5527 14.9155 21.6056 14.865C21.6757 14.8297 21.7545 14.815 21.8328 14.8227H25.5544C25.5903 14.8139 25.628 14.8176 25.6616 14.833C25.6951 14.8484 25.7223 14.8746 25.7388 14.9074C25.7553 14.9402 25.76 14.9775 25.7523 15.0133C25.7445 15.0491 25.7247 15.0813 25.6961 15.1044Z" fill="#FF61F6"/>
<path d="M33.5614 33.5996C32.2538 33.6193 30.9583 33.3499 29.7689 32.8108C28.6609 32.3024 27.7345 31.4725 27.1124 30.4308C26.4291 29.2148 26.095 27.8364 26.1467 26.4453C26.136 25.1527 26.469 23.88 27.1124 22.7556C27.7753 21.6104 28.7499 20.6734 29.9248 20.0517C31.2999 19.3417 32.8353 18.9927 34.385 19.0378C34.4798 19.0378 34.6029 19.0425 34.7543 19.0519C34.9057 19.0616 35.2283 19.0757 35.4367 19.0941V14.1109C35.4203 13.9926 35.4517 13.8727 35.5239 13.7772C35.5962 13.6816 35.7035 13.6182 35.8226 13.6006H38.5722C38.7083 13.601 38.8387 13.6548 38.9349 13.7502C39.0311 13.8456 39.0854 13.9749 39.0858 14.1098V30.1632C39.0858 30.4827 39.0999 30.8301 39.1281 31.2055C39.1566 31.5813 39.1803 31.9192 39.1993 32.2193C39.2028 32.2778 39.1884 32.3359 39.1581 32.3862C39.1277 32.4364 39.0828 32.4765 39.0291 32.501C38.1497 32.8819 37.2305 33.1653 36.2883 33.3461C35.3887 33.5107 34.4761 33.5955 33.5614 33.5996ZM35.3707 30.1069V22.4176C35.1912 22.3769 35.009 22.3487 34.8255 22.3332C34.632 22.3138 34.4375 22.3044 34.2429 22.305C33.5536 22.2982 32.8724 22.4526 32.2545 22.7556C31.5925 23.0685 31.0408 23.5716 30.6709 24.1995C30.3011 24.8273 30.1302 25.551 30.1806 26.2763C30.1669 26.8903 30.2681 27.5015 30.479 28.0789C30.6506 28.5442 30.922 28.9671 31.2745 29.3183C31.6118 29.6414 32.0202 29.8824 32.4674 30.0223C32.9399 30.174 33.4337 30.2501 33.9303 30.2478C34.1957 30.2478 34.442 30.2383 34.6692 30.2195C34.906 30.2035 35.1408 30.1658 35.3707 30.1069Z" fill="#FF61F6"/>
</svg>
